<svg xmlns="http://www.w3.org/2000/svg" xmlns:xlink="http://www.w3.org/1999/xlink" xmlns:fi="http://pattern.flaticon.com/" x="0" y="0" width="2560" height="1600" viewBox="0 0 2560 1600"><rect x="0px" y="0px" width="100%" height="100%" opacity="1" fill="#3330ff"/><defs><g transform="matrix(0.11639138499250275 -0.05393747227918304 0.05393747227918304 0.11639138499250275 75.39596038998569 55.02177664607852)" id="L1_0"><path d="m454.808 33.134h-9.067v-9.067c0-13.271-10.796-24.067-24.067-24.067s-24.067 10.796-24.067 24.067v9.067h-34.7v-9.067c.001-13.271-10.796-24.067-24.066-24.067s-24.067 10.796-24.067 24.067v9.067h-34.7v-9.067c0-13.271-10.796-24.067-24.067-24.067s-24.067 10.796-24.067 24.067v9.067h-34.7v-9.067c.001-13.271-10.796-24.067-24.066-24.067-13.271 0-24.067 10.796-24.067 24.067v9.067h-9.068c-22.405 0-40.632 18.228-40.632 40.632v183.537l-18.346-18.346c-9.384-9.384-24.652-9.383-34.036 0l-23.429 23.429c-9.384 9.383-9.384 24.652 0 34.035l75.81 75.81v99.136c0 22.405 18.228 40.633 40.632 40.633h255.136c4.142 0 7.5-3.358 7.5-7.5s-3.358-7.5-7.5-7.5h-255.135c-14.134 0-25.632-11.499-25.632-25.633v-84.136l61.184 61.184c.178.178.364.346.557.503.131.107.267.202.403.299.064.045.124.096.189.139.172.115.349.217.528.316.034.019.066.041.1.059.189.101.382.189.576.272.029.012.056.028.086.04.189.078.381.144.574.206.04.013.078.029.118.041.182.055.366.098.55.138.055.012.108.029.163.04.179.035.359.058.54.08.063.008.124.021.187.027.243.024.488.036.732.036h43.751l9.518 9.518c1.464 1.464 3.384 2.197 5.303 2.197s3.839-.733 5.303-2.197c2.929-2.929 2.929-7.678 0-10.607l-9.518-9.517v-43.749c0-.246-.012-.491-.036-.736-.005-.054-.017-.106-.023-.16-.023-.19-.048-.379-.085-.567-.01-.048-.024-.095-.035-.143-.042-.191-.087-.382-.143-.57-.01-.034-.024-.066-.035-.1-.063-.199-.132-.397-.212-.592-.009-.021-.02-.041-.029-.062-.086-.203-.179-.404-.283-.6-.014-.026-.03-.049-.044-.075-.103-.188-.211-.373-.331-.553-.037-.056-.081-.108-.12-.163-.102-.145-.204-.29-.317-.429-.158-.193-.325-.379-.503-.557l-61.185-61.185h258.087c4.142 0 7.5-3.358 7.5-7.5s-3.358-7.5-7.5-7.5h-265.067c-2.203 0-4.179.956-5.551 2.469l-44.933-44.933v-141.333h366.034v51.151c0 4.142 3.358 7.5 7.5 7.5s7.5-3.358 7.5-7.5v-108.352c.001-22.405-18.227-40.632-40.632-40.632zm-234.556 402.478h-21.251l21.251-21.251zm-157.317-121.065 12.823-12.822 117.959 117.959-12.822 12.822zm141.388 94.53-117.959-117.959 12.823-12.822 117.959 117.959zm-170.12-136.084 23.429-23.429c3.535-3.535 9.288-3.536 12.823 0l18.126 18.126-36.252 36.25-18.125-18.125c-3.536-3.535-3.536-9.287-.001-12.822zm387.471-257.993c5 0 9.067 4.067 9.067 9.067v33.133c0 5-4.067 9.067-9.067 9.067s-9.067-4.067-9.067-9.067v-16.556c0-.003 0-.006 0-.01s0-.006 0-.01v-16.557c.001-5 4.068-9.067 9.067-9.067zm-82.833 0c5 0 9.067 4.067 9.067 9.067v33.133c0 5-4.067 9.067-9.067 9.067s-9.067-4.067-9.067-9.067v-16.556c0-.003 0-.006 0-.01s0-.006 0-.01v-16.557c0-5 4.067-9.067 9.067-9.067zm-91.9 9.067c0-5 4.067-9.067 9.067-9.067s9.067 4.067 9.067 9.067v16.557.01s0 .006 0 .01v16.556c0 5-4.067 9.067-9.067 9.067-4.999 0-9.067-4.067-9.067-9.067zm-73.767-9.067c4.999 0 9.067 4.067 9.067 9.067v33.133c0 5-4.067 9.067-9.067 9.067s-9.067-4.067-9.067-9.067v-33.133c0-5 4.067-9.067 9.067-9.067zm-58.767 100.967v-42.201c0-14.134 11.499-25.632 25.632-25.632h9.068v9.066c0 13.271 10.796 24.067 24.067 24.067 13.27 0 24.067-10.796 24.067-24.067v-9.066h34.7v9.066c0 13.271 10.796 24.067 24.067 24.067s24.067-10.796 24.067-24.067v-9.066h34.7v9.066c0 13.271 10.796 24.067 24.067 24.067s24.067-10.796 24.067-24.067v-9.066h34.7v9.066c0 13.271 10.796 24.067 24.067 24.067s24.067-10.796 24.067-24.067v-9.066h9.067c14.134 0 25.633 11.499 25.633 25.632v42.201z" fill="#ffffff"/><path d="m487.941 204.619c-4.142 0-7.5 3.358-7.5 7.5v259.248c0 14.134-11.499 25.633-25.633 25.633h-29.634c-4.142 0-7.5 3.358-7.5 7.5s3.358 7.5 7.5 7.5h29.634c22.405 0 40.633-18.228 40.633-40.633v-259.248c0-4.142-3.358-7.5-7.5-7.5z" fill="#ffffff"/><path d="m164.89 180.667h265.067c4.142 0 7.5-3.358 7.5-7.5s-3.358-7.5-7.5-7.5h-265.067c-4.142 0-7.5 3.358-7.5 7.5s3.358 7.5 7.5 7.5z" fill="#ffffff"/><path d="m164.89 230.367h265.067c4.142 0 7.5-3.358 7.5-7.5s-3.358-7.5-7.5-7.5h-265.067c-4.142 0-7.5 3.358-7.5 7.5s3.358 7.5 7.5 7.5z" fill="#ffffff"/><path d="m164.89 280.067h265.067c4.142 0 7.5-3.358 7.5-7.5s-3.358-7.5-7.5-7.5h-265.067c-4.142 0-7.5 3.358-7.5 7.5s3.358 7.5 7.5 7.5z" fill="#ffffff"/><path d="m437.458 371.967c0-4.142-3.358-7.5-7.5-7.5h-173.95c-4.142 0-7.5 3.358-7.5 7.5s3.358 7.5 7.5 7.5h173.95c4.142 0 7.5-3.358 7.5-7.5z" fill="#ffffff"/></g><g transform="matrix(0.13661426689948603 0.04751800710244449 -0.04751800710244449 0.13661426689948603 8.46722630486208 162.09090443078907)" id="L1_1"><path d="m247.717 99.4h-16.567c-4.142 0-7.5 3.358-7.5 7.5s3.358 7.5 7.5 7.5h16.567c4.142 0 7.5-3.358 7.5-7.5s-3.358-7.5-7.5-7.5z" fill="#ffffff"/><path d="m230.367 73.767c0-4.142-3.358-7.5-7.5-7.5h-16.567c-4.142 0-7.5 3.358-7.5 7.5s3.358 7.5 7.5 7.5h16.567c4.142 0 7.5-3.358 7.5-7.5z" fill="#ffffff"/><path d="m272.567 66.267h-16.567c-4.142 0-7.5 3.358-7.5 7.5s3.358 7.5 7.5 7.5h16.567c4.142 0 7.5-3.358 7.5-7.5s-3.358-7.5-7.5-7.5z" fill="#ffffff"/><path d="m421.95 190.517h-42.483v-1.066c0-8.547-6.953-15.5-15.5-15.5h-1.067v-67.051c0-58.945-47.955-106.9-106.9-106.9s-106.9 47.955-106.9 106.9v67.051h-1.067c-8.547 0-15.5 6.953-15.5 15.5v1.066h-42.483c-8.547 0-15.5 6.953-15.5 15.5v33.7c0 5.941 3.364 11.106 8.284 13.706v2.577c0 84.43 60.741 154.929 140.816 170.123v37.743h-92.183c-8.547 0-15.5 6.953-15.5 15.5v25.134c0 4.142 3.358 7.5 7.5 7.5h265.066c4.142 0 7.5-3.358 7.5-7.5v-25.133c0-8.547-6.953-15.5-15.5-15.5h-92.183v-37.715c34.429-6.482 66.038-23.288 91.196-48.923 2.901-2.956 2.856-7.705-.1-10.606-2.957-2.9-7.705-2.857-10.606.1-30.026 30.596-70.1 47.445-112.84 47.445-87.213 0-158.167-70.953-158.167-158.167v-.783h18.133v.782c0 77.214 62.819 140.033 140.033 140.033s140.034-62.819 140.034-140.033v-.783h18.133v.783c0 31.24-9.135 61.47-26.417 87.424-2.296 3.448-1.362 8.103 2.086 10.399 3.447 2.296 8.104 1.362 10.4-2.086 18.927-28.424 28.931-61.53 28.931-95.738v-2.577c4.92-2.601 8.284-7.765 8.284-13.706v-33.7c0-8.546-6.953-15.499-15.5-15.499zm-40.917 288.85v17.633h-250.066v-17.633c0-.276.224-.5.5-.5h99.683 49.7 99.683c.276 0 .5.224.5.5zm-107.683-51.054v35.554h-34.7v-35.567c5.708.57 11.495.866 17.35.866 5.834.001 11.623-.287 17.35-.853zm-109.25-321.413c0-50.674 41.226-91.9 91.9-91.9s91.9 41.226 91.9 91.9v67.051h-183.8zm-16.567 82.551c0-.276.224-.5.5-.5h207.357.01s.006 0 .01 0h8.557c.276 0 .5.224.5.5v8.566 49.7.283c0 .276-.224.5-.5.5h-135.52c-4.142 0-7.5 3.358-7.5 7.5s3.358 7.5 7.5 7.5h119.145c-3.829 47.179-43.443 84.4-91.592 84.4s-87.764-37.221-91.592-84.4h34.04c4.142 0 7.5-3.358 7.5-7.5s-3.358-7.5-7.5-7.5h-50.414c-.276 0-.5-.224-.5-.5v-.283-49.7-8.566zm-57.199 50.766h-.284c-.276 0-.5-.224-.5-.5v-33.7c0-.276.224-.5.5-.5h42.483v34.7h-9.066zm290.699 15.783c0 68.943-56.09 125.033-125.033 125.033s-125.033-56.09-125.033-125.033v-.783h3.36c2.601 4.919 7.765 8.283 13.706 8.283h1.334c3.863 55.459 50.21 99.4 106.633 99.4s102.77-43.942 106.633-99.4h1.334c5.941 0 11.105-3.364 13.706-8.283h3.36zm7.5-15.783h-9.066v-34.7h42.483c.276 0 .5.224.5.5v33.7c0 .276-.224.5-.5.5h-.284z" fill="#ffffff"/></g><g transform="matrix(0.124703791861821 -0.04258178303993194 0.04258178303993194 0.124703791861821 165.19618371667121 252.9805238875273)" id="L1_2"><path d="m362.9 182.939v-36.099c0-4.142-3.357-7.5-7.5-7.5s-7.5 3.358-7.5 7.5v233.693c0 .276-.225.5-.5.5h-17.134c-.275 0-.5-.224-.5-.5v-8.566-298.2-8.567c0-.276.225-.5.5-.5h17.134c.275 0 .5.224.5.5v51.64c0 4.142 3.357 7.5 7.5 7.5s7.5-3.358 7.5-7.5v-51.64c0-8.547-6.953-15.5-15.5-15.5h-17.134c-8.547 0-15.5 6.953-15.5 15.5v3.737l-176.357 80.163h-98.909c-21.78 0-39.5 17.72-39.5 39.5v68.533c0 21.78 17.72 39.5 39.5 39.5h10.2v117.533h-1.066c-8.547 0-15.5 6.953-15.5 15.5v17.134c0 8.547 6.953 15.5 15.5 15.5h66.833c8.547 0 15.5-6.953 15.5-15.5v-17.133c0-8.547-6.953-15.5-15.5-15.5h-1.067v-67.833h17.35c8.703 0 15.783-7.081 15.783-15.784v-29.769l99.705 45.32c3.771 1.713 8.217.047 9.932-3.724 1.714-3.771.046-8.217-3.725-9.931l-105.912-48.142v-122.874l167.233-76.016v274.905l-31.093-14.133c-3.771-1.714-8.217-.047-9.932 3.724-1.714 3.771-.046 8.217 3.725 9.931l37.3 16.955v3.737c0 8.547 6.953 15.5 15.5 15.5h17.134c8.547 0 15.5-6.953 15.5-15.5v-117.739c18.833-3.53 33.133-20.085 33.133-39.928s-14.3-36.397-33.133-39.927zm-347.9 74.194v-68.533c0-13.509 10.99-24.5 24.5-24.5h93.033v117.533h-25.633-49.7-17.7c-13.51 0-24.5-10.99-24.5-24.5zm84.4 39.5v42.2 42.2h-34.7v-84.4zm16.567 133.034v17.133c0 .276-.225.5-.5.5h-66.833c-.275 0-.5-.224-.5-.5v-17.133c0-.276.225-.5.5-.5h8.566 49.7 8.566c.276 0 .501.224.501.5zm-51.267-15.5v-18.133h34.7v18.133zm67.833-83.617c0 .432-.352.784-.783.784h-17.35v-34.7h18.133zm230.367-83.172v-49.023c10.486 3.215 18.133 12.986 18.133 24.511s-7.647 21.297-18.133 24.512z" fill="#ffffff"/><path d="m480.862 134.821c-2.606-3.22-7.328-3.716-10.548-1.111-3.22 2.606-3.717 7.329-1.11 10.548 17.925 22.143 27.796 50.06 27.796 78.609 0 28.548-9.871 56.465-27.795 78.608-2.607 3.22-2.109 7.942 1.11 10.548 1.389 1.124 3.057 1.671 4.714 1.671 2.186 0 4.353-.951 5.834-2.782 20.079-24.804 31.137-56.072 31.137-88.045s-11.059-63.243-31.138-88.046z" fill="#ffffff"/><path d="m450.826 150.695c-2.798-3.055-7.542-3.264-10.597-.466-3.055 2.797-3.264 7.542-.466 10.596 15.543 16.974 24.103 39.007 24.103 62.042 0 23.036-8.561 45.07-24.105 62.045-2.798 3.055-2.589 7.799.466 10.596 1.439 1.318 3.254 1.969 5.063 1.969 2.03 0 4.054-.82 5.533-2.435 18.083-19.747 28.042-45.379 28.042-72.175.001-26.794-9.957-52.426-28.039-72.172z" fill="#ffffff"/><path d="m419.722 166.643c-3.155-2.683-7.889-2.298-10.571.856-2.684 3.156-2.3 7.889.856 10.572 13.172 11.198 20.727 27.525 20.727 44.795 0 17.271-7.556 33.6-20.729 44.798-3.156 2.683-3.54 7.416-.857 10.572 1.484 1.746 3.594 2.643 5.719 2.643 1.717 0 3.443-.586 4.854-1.786 16.532-14.053 26.015-34.547 26.015-56.227-.003-21.677-9.483-42.17-26.014-56.223z" fill="#ffffff"/><path d="m57.2 213.8h33.133c4.143 0 7.5-3.358 7.5-7.5s-3.357-7.5-7.5-7.5h-33.133c-4.143 0-7.5 3.358-7.5 7.5s3.358 7.5 7.5 7.5z" fill="#ffffff"/><path d="m90.333 246.933c4.143 0 7.5-3.358 7.5-7.5s-3.357-7.5-7.5-7.5h-33.133c-4.143 0-7.5 3.358-7.5 7.5s3.357 7.5 7.5 7.5z" fill="#ffffff"/></g><g transform="matrix(0.14045736920924037 -0.02247317856389358 0.02247317856389358 0.14045736920924037 266.2839628030174 27.987942293528366)" id="L1_3"><path d="m511.826 179.832c-.567-2.578-2.449-4.668-4.953-5.503l-171.361-57.12c-3.928-1.308-8.177.814-9.487 4.743-1.31 3.93.814 8.178 4.744 9.487l143.14 47.713-182.946 31.817-239.242-172.546 247.016 82.339c3.929 1.307 8.177-.813 9.487-4.743s-.814-8.178-4.744-9.487l-293.608-97.87c-.1-.033-.171-.04-.257-.062-2.128-.626-4.487-.314-6.406 1.027-2.947 2.056-4.021 5.913-2.562 9.196l198.8 447.3c.989 2.227 2.998 3.833 5.387 4.31.488.097.979.145 1.466.145 1.902 0 3.755-.725 5.162-2.059l82.954-78.684 73.546 46.45c.034.022.072.027.107.042 1.155.705 2.49 1.117 3.893 1.117.281 0 .563-.016.848-.048 3.458-.391 6.193-3.11 6.604-6.566l16.245-136.648 113.981-107.276c1.923-1.809 2.753-4.496 2.186-7.074zm-30.67 13.284-93.254 87.768-79.932-57.649zm-153.154 144.188-108.467 102.882 40.675-168.68zm7.647 13.42 21.924 61.258-51.929-32.798zm32.635 46.671-22.389-62.557c-.015-.042-.038-.08-.054-.122-.386-1.02-.985-1.958-1.784-2.733l-110.991-107.726c-2.971-2.884-7.72-2.813-10.605.158-2.885 2.973-2.814 7.721.158 10.605l25.088 24.35-43.521 180.482-174.082-391.685 170.978 165.949c2.971 2.885 7.72 2.815 10.605-.158s2.814-7.721-.158-10.605l-125.031-121.353 294.067 212.089z" fill="#ffffff"/><path d="m487.934 387.744c-1.919 0-3.839-.732-5.303-2.196l-66.267-66.267c-2.929-2.93-2.929-7.678 0-10.607 2.929-2.928 7.678-2.928 10.606 0l66.267 66.267c2.929 2.93 2.929 7.678 0 10.607-1.464 1.464-3.384 2.196-5.303 2.196z" fill="#ffffff"/><path d="m371.968 503.711c-1.919 0-3.839-.732-5.303-2.196l-66.267-66.267c-2.929-2.93-2.929-7.678 0-10.607 2.929-2.928 7.678-2.928 10.606 0l66.267 66.267c2.929 2.93 2.929 7.678 0 10.607-1.465 1.463-3.384 2.196-5.303 2.196z" fill="#ffffff"/><path d="m487.934 503.711c-1.919 0-3.839-.732-5.303-2.196l-66.267-66.267c-2.929-2.93-2.929-7.678 0-10.607 2.929-2.928 7.678-2.928 10.606 0l66.267 66.267c2.929 2.93 2.929 7.678 0 10.607-1.464 1.463-3.384 2.196-5.303 2.196z" fill="#ffffff"/></g><g transform="matrix(0.10170779773674368 0.026922652230859625 -0.026922652230859625 0.10170779773674368 28.848941298071104 298.0811448853243)" id="L1_4"><g><path d="m330.55 0h-273.351c-8.703 0-15.783 7.08-15.783 15.783v93.336c0 4.142 3.357 7.5 7.5 7.5s7.5-3.358 7.5-7.5v-93.336c0-.432.352-.783.783-.783h33.917v432.3h-33.917c-.432 0-.783-.352-.783-.783v-307.533c0-4.142-3.357-7.5-7.5-7.5s-7.5 3.358-7.5 7.5v307.533c0 8.703 7.08 15.783 15.783 15.783h17.351v42.2c0 2.599 1.346 5.013 3.557 6.38 1.205.745 2.572 1.12 3.943 1.12 1.146 0 2.296-.263 3.354-.792l29.778-14.89 29.779 14.89c2.324 1.162 5.084 1.038 7.298-.328 2.211-1.367 3.557-3.781 3.557-6.38v-42.2h174.734c22.405 0 40.633-18.228 40.633-40.632v-381.036c0-22.404-18.228-40.632-40.633-40.632zm-224.434 15h18.134v432.3h-18.134zm34.7 477.365-22.279-11.14c-1.056-.528-2.205-.792-3.354-.792s-2.299.264-3.354.792l-22.278 11.14v-30.065h51.267v30.065zm215.367-70.697c0 14.134-11.499 25.632-25.633 25.632h-191.3v-432.3h191.3c14.134 0 25.633 11.499 25.633 25.632z" fill="#ffffff"/><path d="m272.85 82.833h-83.4c-8.547 0-15.5 6.953-15.5 15.5v50.267c0 8.547 6.953 15.5 15.5 15.5h83.399c8.547 0 15.5-6.953 15.5-15.5v-50.267c.001-8.547-6.952-15.5-15.499-15.5zm.5 65.767c0 .276-.225.5-.5.5h-83.4c-.275 0-.5-.224-.5-.5v-50.267c0-.276.225-.5.5-.5h83.399c.275 0 .5.224.5.5v50.267z" fill="#ffffff"/></g><path d="m463.084 262.5c4.143 0 7.5-3.358 7.5-7.5v-122.835c0-1.989-.79-3.897-2.196-5.303l-30.938-30.938v-13.459c0-4.142-3.357-7.5-7.5-7.5s-7.5 3.358-7.5 7.5v13.46l-30.937 30.937c-1.406 1.407-2.196 3.314-2.196 5.303v214.952c0 13.271 10.796 24.067 24.066 24.067h33.134c13.271 0 24.066-10.796 24.066-24.067v-61.117c0-4.142-3.357-7.5-7.5-7.5s-7.5 3.358-7.5 7.5v20.483h-18.133v-166.818h18.134v115.335c0 4.143 3.357 7.5 7.5 7.5zm-48.16-137.835 15.027-15.027 15.027 15.027zm40.66 222.452c0 5-4.067 9.067-9.066 9.067h-33.134c-4.999 0-9.066-4.067-9.066-9.067v-25.633h51.267v25.633zm-33.134-40.634h-18.133v-166.818h18.133z" fill="#ffffff"/></g><g transform="matrix(0.13111197644205205 0.011654398144783695 -0.011654398144783695 0.13111197644205205 195.75247283377652 116.33875667987843)" id="L1_5"><path d="m479.933 463.867h-83.9v-17.633c0-8.547-6.953-15.5-15.5-15.5h-3.768l-96.699-209.514v-48.472c10.04-7.405 16.567-19.31 16.567-32.714 0-22.405-18.229-40.633-40.634-40.633s-40.633 18.228-40.633 40.633c0 13.404 6.527 25.308 16.566 32.714v48.473l-34.801 75.404c-1.736 3.761-.094 8.217 3.667 9.953 1.018.47 2.087.692 3.138.692 2.835 0 5.548-1.616 6.815-4.359l33.481-72.542h23.536l92.477 200.367h-16.613l-74.452-161.315c-1.226-2.656-3.885-4.357-6.811-4.357l-12.744.002c-2.925 0-5.583 1.701-6.808 4.357l-74.451 161.31h-16.613l45.15-97.824c1.736-3.761.094-8.217-3.667-9.953-3.761-1.735-8.217-.094-9.953 3.666l-48.051 104.11h-3.768c-8.547 0-15.5 6.953-15.5 15.5v17.633h-83.9c-8.547 0-15.5 6.953-15.5 15.5v25.135c0 4.142 3.358 7.5 7.5 7.5h402.262c4.143 0 7.5-3.358 7.5-7.5s-3.357-7.5-7.5-7.5h-394.759v-17.633c0-.276.224-.5.5-.5h447.867c.275 0 .5.224.5.5v17.633h-24.104c-4.143 0-7.5 3.358-7.5 7.5s3.357 7.5 7.5 7.5h31.604c4.143 0 7.5-3.358 7.5-7.5v-25.133c-.001-8.547-6.954-15.5-15.501-15.5zm-223.933-349.467c14.135 0 25.634 11.499 25.634 25.633s-11.499 25.633-25.634 25.633c-14.134 0-25.633-11.499-25.633-25.633-.001-14.134 11.498-25.633 25.633-25.633zm0 66.267c3.117 0 6.149-.365 9.066-1.032v35.732h-18.133v-35.733c2.918.668 5.95 1.033 9.067 1.033zm58.766 265.566v17.633h-117.533v-17.633c0-7.514-5.376-13.792-12.483-15.2l16.154-35h110.192l16.154 35c-7.108 1.409-12.484 7.686-12.484 15.2zm-98.57-83.333h79.607l8.369 18.133h-96.346zm38.231-82.834h3.145l31.308 67.834h-65.761zm-123.46 183.801v-17.633c0-.276.224-.5.5-.5h8.566 33.133 8.567c.276 0 .5.224.5.5v17.633zm198.799 0v-17.633c0-.276.225-.5.5-.5h8.566 33.134 8.566c.275 0 .5.224.5.5v17.633z" fill="#ffffff"/><path d="m290.166 187.854c-3.367 2.411-4.144 7.096-1.732 10.464 1.465 2.046 3.768 3.135 6.105 3.135 1.512 0 3.037-.455 4.36-1.402 19.328-13.837 30.868-36.273 30.868-60.017 0-40.675-33.092-73.767-73.767-73.767s-73.767 33.092-73.767 73.767c0 23.743 11.539 46.179 30.868 60.016 3.366 2.411 8.053 1.635 10.464-1.732 2.411-3.368 1.636-8.053-1.732-10.464-15.403-11.028-24.599-28.904-24.599-47.82 0-32.404 26.363-58.767 58.767-58.767s58.767 26.363 58.767 58.767c-.002 18.915-9.198 36.792-24.602 47.82z" fill="#ffffff"/><path d="m312.688 230.68c31.441-19.702 50.212-53.588 50.212-90.647 0-58.945-47.955-106.9-106.9-106.9s-106.9 47.955-106.9 106.9c0 37.06 18.77 70.946 50.211 90.647 1.238.775 2.615 1.145 3.975 1.145 2.498 0 4.939-1.247 6.363-3.519 2.199-3.51 1.137-8.139-2.373-10.338-27.036-16.94-43.176-46.075-43.176-77.936 0-50.674 41.226-91.9 91.9-91.9s91.9 41.226 91.9 91.9c0 31.86-16.141 60.995-43.177 77.936-3.51 2.2-4.572 6.828-2.373 10.338 2.2 3.51 6.827 4.572 10.338 2.374z" fill="#ffffff"/><path d="m185.412 260.999c3.574 2.089 8.169.888 10.26-2.689 2.091-3.576.887-8.169-2.689-10.26-38.253-22.368-62.017-63.757-62.017-108.017.001-68.943 56.09-125.033 125.034-125.033s125.033 56.09 125.033 125.033c0 44.26-23.765 85.65-62.02 108.018-3.575 2.091-4.779 6.685-2.689 10.26 1.396 2.386 3.904 3.716 6.481 3.715 1.286 0 2.589-.331 3.779-1.026 20.747-12.131 38.14-29.503 50.296-50.236 12.529-21.369 19.151-45.827 19.151-70.731.002-77.214-62.816-140.033-140.031-140.033-77.214 0-140.033 62.819-140.033 140.033 0 24.904 6.622 49.362 19.151 70.73 12.156 20.734 29.547 38.105 50.294 50.236z" fill="#ffffff"/></g><g transform="matrix(0.11038762077376683 -0.0328179419614868 0.0328179419614868 0.11038762077376683 88.17785315921236 210.82050809398893)" id="L1_6"><path d="m471.367 146.669h-108.468v-75.335c0-22.404-18.228-40.632-40.633-40.632h-281.633c-22.405 0-40.633 18.228-40.633 40.632v111.686c0 4.143 3.357 7.5 7.5 7.5s7.5-3.357 7.5-7.5v-111.686c0-14.134 11.499-25.632 25.633-25.632h281.634c14.134 0 25.633 11.498 25.633 25.632v198.803c0 14.134-11.498 25.633-25.632 25.633h-162.238c-4.218 0-8.182 1.643-11.16 4.622l-49.7 49.7c-.139.141-.372.37-.854.171-.483-.2-.483-.528-.483-.724v-37.986c0-8.703-7.081-15.783-15.784-15.783h-41.416c-14.134 0-25.633-11.499-25.633-25.633v-57.117c0-4.143-3.357-7.5-7.5-7.5s-7.5 3.357-7.5 7.5v57.117c0 22.405 18.228 40.633 40.633 40.633h41.416c.433 0 .784.352.784.783v37.986c0 6.406 3.824 12.13 9.743 14.581 1.965.815 4.02 1.21 6.056 1.21 4.1-.001 8.118-1.604 11.146-4.631l39.323-39.324v64.729c0 22.404 18.227 40.632 40.632 40.632h90.834c4.143 0 7.5-3.357 7.5-7.5s-3.357-7.5-7.5-7.5h-90.834c-14.134 0-25.632-11.498-25.632-25.632v-75.334h158.167c22.404 0 40.632-18.228 40.632-40.633v-108.468h108.468c14.134 0 25.633 11.499 25.633 25.633v198.803c0 14.134-11.499 25.632-25.633 25.632h-41.416c-8.703 0-15.784 7.08-15.784 15.783v37.986c0 .196 0 .523-.483.725-.48.2-.715-.03-.853-.171l-49.699-49.698c-2.98-2.982-6.944-4.625-11.161-4.625h-41.402c-4.143 0-7.5 3.357-7.5 7.5s3.357 7.5 7.5 7.5h41.402c.205 0 .406.083.553.23l49.7 49.7c3.027 3.026 7.046 4.631 11.146 4.631 2.035-.001 4.092-.396 6.056-1.21 5.919-2.451 9.743-8.175 9.743-14.582v-37.986c0-.432.352-.783.784-.783h41.416c22.405 0 40.633-18.228 40.633-40.632v-198.803c-.003-22.405-18.231-40.633-40.636-40.633z" fill="#ffffff"/><path d="m231.934 352.97c0 13.271 10.796 24.066 24.066 24.066 13.271 0 24.066-10.796 24.066-24.066s-10.795-24.067-24.066-24.067c-13.27 0-24.066 10.796-24.066 24.067zm33.132 0c0 4.999-4.067 9.066-9.066 9.066s-9.066-4.067-9.066-9.066 4.067-9.066 9.066-9.066 9.066 4.067 9.066 9.066z" fill="#ffffff"/><path d="m157.383 253.569c0 13.27 10.797 24.066 24.067 24.066 13.271 0 24.066-10.796 24.066-24.066 0-13.271-10.796-24.066-24.066-24.066s-24.067 10.796-24.067 24.066zm33.134 0c0 4.999-4.067 9.066-9.066 9.066-5 0-9.067-4.067-9.067-9.066s4.067-9.066 9.067-9.066c4.998 0 9.066 4.067 9.066 9.066z" fill="#ffffff"/><path d="m205.517 172.937c21.462-9.945 34.639-32.09 32.994-55.905-1.95-28.296-24.759-51.105-53.052-53.058-15.796-1.094-31.485 4.463-43.033 15.242-11.552 10.781-18.177 26.024-18.177 41.82 0 13.271 10.797 24.066 24.067 24.066s24.066-10.796 24.066-24.066c0-2.578.998-4.871 2.885-6.632 1.854-1.729 4.302-2.58 6.877-2.411 4.306.297 8.05 4.042 8.347 8.352.273 3.948-1.979 7.602-5.604 9.09-16.709 6.861-27.505 23.073-27.505 41.302v16.566c0 13.271 10.796 24.067 24.066 24.067s24.067-10.797 24.067-24.067v-14.366zm-8.041-12.853c-4.228 1.735-6.959 5.917-6.959 10.652v16.566c0 5-4.067 9.067-9.067 9.067-4.999 0-9.066-4.067-9.066-9.067v-16.566c0-12.12 7.145-22.886 18.202-27.427 9.614-3.947 15.59-13.592 14.871-23.998-.806-11.689-10.592-21.477-22.289-22.283-.572-.039-1.141-.059-1.706-.059-6.142 0-11.921 2.263-16.426 6.467-4.935 4.604-7.652 10.855-7.652 17.6 0 4.999-4.067 9.066-9.066 9.066-5 0-9.067-4.067-9.067-9.066 0-11.653 4.889-22.9 13.411-30.855 8.518-7.952 20.078-12.059 31.766-11.242 20.863 1.438 37.682 18.259 39.12 39.125 1.256 18.212-9.222 35.1-26.072 42.02z" fill="#ffffff"/><path d="m429.167 352.97c0-13.271-10.796-24.066-24.066-24.066s-24.066 10.796-24.066 24.066 10.796 24.066 24.066 24.066 24.066-10.796 24.066-24.066zm-33.133 0c0-4.999 4.067-9.066 9.066-9.066s9.066 4.067 9.066 9.066-4.067 9.066-9.066 9.066c-4.998 0-9.066-4.067-9.066-9.066z" fill="#ffffff"/><path d="m330.551 377.036c13.27 0 24.066-10.796 24.066-24.066s-10.796-24.066-24.066-24.066c-13.271 0-24.067 10.796-24.067 24.066s10.796 24.066 24.067 24.066zm0-33.133c4.999 0 9.066 4.067 9.066 9.066s-4.067 9.066-9.066 9.066c-5 0-9.067-4.067-9.067-9.066s4.067-9.066 9.067-9.066z" fill="#ffffff"/></g><g transform="matrix(0.08128377003135173 0.01681733176941572 -0.01681733176941572 0.08128377003135173 282.2273138301795 286.01224792727413)" id="L1_7"><path d="m471.369 115.987h-149.093c-13.663 0-25.763 6.785-33.132 17.155-7.37-10.37-19.47-17.155-33.132-17.155h-82.563l-85.507-85.507c-.001-.001-.002-.002-.003-.003s-.002-.002-.004-.003l-23.424-23.424c-4.545-4.546-10.589-7.05-17.017-7.05s-12.472 2.504-17.017 7.049l-23.427 23.428c-4.546 4.545-7.05 10.588-7.05 17.016 0 6.429 2.504 12.473 7.049 17.018l23.423 23.424c.001.001.002.003.004.004.001.001.003.002.004.004l44.101 44.101c-5.327 7.015-8.292 15.633-8.292 24.575v134.095c0 4.143 3.358 7.5 7.5 7.5s7.5-3.357 7.5-7.5v-134.096c0-4.942 1.437-9.728 4.052-13.816l73.694 73.695c.178.178.364.345.557.503 1.143.931 2.55 1.509 4.014 1.657.243.024.488.036.732.036h43.748l9.518 9.518c1.464 1.464 3.384 2.196 5.303 2.196.178 0 16.54-.025 16.54-.025 4.142 0 7.5-3.357 7.5-7.5s-3.358-7.5-7.5-7.5h-13.458l-7.295-7.295v-43.746c0-.246-.012-.491-.036-.736-.148-1.464-.725-2.873-1.658-4.014-.158-.193-.325-.378-.503-.556l-28.047-28.047h67.563c14.133 0 25.631 11.498 25.632 25.63v283.254c-6.997-5.705-15.921-9.134-25.632-9.134h-174.724v-110.025c0-4.143-3.358-7.5-7.5-7.5s-7.5 3.357-7.5 7.5v150.655c0 22.404 18.228 40.632 40.632 40.632h292.324c4.143 0 7.5-3.357 7.5-7.5s-3.357-7.5-7.5-7.5h-102.6l.001-18.132h141.592c4.143 0 7.5-3.357 7.5-7.5s-3.357-7.5-7.5-7.5h-140.47c3.215-10.485 12.985-18.131 24.509-18.131h174.723v25.631c0 14.134-11.498 25.632-25.631 25.632h-42.124c-4.143 0-7.5 3.357-7.5 7.5s3.357 7.5 7.5 7.5h42.124c22.404 0 40.631-18.227 40.631-40.632v-314.75c0-22.404-18.227-40.631-40.631-40.631zm-453.714-62.084c-1.712-1.712-2.655-3.988-2.655-6.41 0-2.421.943-4.697 2.656-6.409l23.428-23.429c1.711-1.712 3.988-2.655 6.41-2.655 2.421 0 4.698.943 6.411 2.656l18.123 18.124-18.119 18.119c-.002.002-.003.003-.005.005s-.003.003-.005.005l-18.119 18.119zm146.683 146.684-117.951-117.952 12.821-12.821 117.951 117.952zm39.355 3.106h-21.248l21.248-21.248zm-3.106-39.355-12.821 12.821-117.951-117.952 12.821-12.82 82.393 82.392.021.021zm81.058 332.662h-174.724c-14.133 0-25.632-11.498-25.632-25.632v-25.631h174.724c11.524 0 21.294 7.646 24.509 18.131h-140.47c-4.142 0-7.5 3.357-7.5 7.5s3.358 7.5 7.5 7.5h141.592v18.132zm215.355-66.263h-174.724c-9.711 0-18.634 3.429-25.632 9.134l.001-283.254c0-14.133 11.498-25.63 25.631-25.63h149.093c14.133 0 25.631 11.498 25.631 25.631z" fill="#ffffff"/><path d="m371.974 180.685h49.697c4.143 0 7.5-3.357 7.5-7.5s-3.357-7.5-7.5-7.5h-49.697c-4.143 0-7.5 3.357-7.5 7.5 0 4.142 3.357 7.5 7.5 7.5z" fill="#ffffff"/><path d="m454.803 215.382h-115.961c-4.143 0-7.5 3.357-7.5 7.5s3.357 7.5 7.5 7.5h115.961c4.143 0 7.5-3.357 7.5-7.5s-3.358-7.5-7.5-7.5z" fill="#ffffff"/><path d="m454.803 248.513h-115.961c-4.143 0-7.5 3.357-7.5 7.5s3.357 7.5 7.5 7.5h115.961c4.143 0 7.5-3.357 7.5-7.5s-3.358-7.5-7.5-7.5z" fill="#ffffff"/><path d="m454.803 281.645h-115.961c-4.143 0-7.5 3.358-7.5 7.5 0 4.143 3.357 7.5 7.5 7.5h115.961c4.143 0 7.5-3.357 7.5-7.5s-3.358-7.5-7.5-7.5z" fill="#ffffff"/><path d="m454.803 314.776h-115.961c-4.143 0-7.5 3.357-7.5 7.5s3.357 7.5 7.5 7.5h115.961c4.143 0 7.5-3.357 7.5-7.5 0-4.142-3.358-7.5-7.5-7.5z" fill="#ffffff"/><path d="m454.803 347.908h-99.395c-4.143 0-7.5 3.357-7.5 7.5s3.357 7.5 7.5 7.5h99.395c4.143 0 7.5-3.357 7.5-7.5s-3.358-7.5-7.5-7.5z" fill="#ffffff"/></g><g transform="matrix(0.06944358840976222 0.027777434353522153 -0.027777434353522153 0.06944358840976222 204.25335436632938 14.973725232779572)" id="L1_8"><path d="m511.999 156.599c0-22.405-18.228-40.632-40.632-40.632h-430.733c-22.405 0-40.633 18.228-40.633 40.632v92.683c0 4.142 3.357 7.5 7.5 7.5s7.5-3.358 7.5-7.5v-92.683c0-14.134 11.499-25.632 25.633-25.632h430.732c14.134 0 25.632 11.498 25.632 25.632v241.001h-481.996v-118.318c0-4.142-3.357-7.5-7.5-7.5s-7.5 3.358-7.5 7.5v158.953c0 22.405 18.228 40.632 40.633 40.632h54.13l-11.139 22.279c-1.163 2.325-1.038 5.086.328 7.297s3.78 3.557 6.38 3.557h33.134c2.841 0 5.438-1.605 6.708-4.146l14.493-28.987h21.724c4.143 0 7.5-3.358 7.5-7.5s-3.357-7.5-7.5-7.5h-125.759c-14.134 0-25.633-11.499-25.633-25.632v-25.635h481.997v25.635c0 14.134-11.498 25.632-25.632 25.632h-274.974c-4.143 0-7.5 3.358-7.5 7.5s3.357 7.5 7.5 7.5h170.941l14.493 28.987c1.27 2.541 3.867 4.146 6.708 4.146h33.134c2.6 0 5.014-1.346 6.38-3.557s1.491-4.972.328-7.297l-11.14-22.279h54.131c22.404 0 40.632-18.228 40.632-40.632v-33.096c0-.013 0-248.54 0-248.54zm-393.167 340.401h-16.363l9.066-18.133h16.364zm290.7 0h-16.362l-9.067-18.133h16.363z" fill="#ffffff"/><path d="m405.1 445.733c4.143 0 7.5-3.358 7.5-7.5s-3.357-7.5-7.5-7.5h-16.566c-4.143 0-7.5 3.358-7.5 7.5s3.357 7.5 7.5 7.5z" fill="#ffffff"/><path d="m355.401 445.733c4.143 0 7.5-3.358 7.5-7.5s-3.357-7.5-7.5-7.5h-16.567c-4.143 0-7.5 3.358-7.5 7.5s3.357 7.5 7.5 7.5z" fill="#ffffff"/><path d="m454.8 445.733c4.143 0 7.5-3.358 7.5-7.5s-3.357-7.5-7.5-7.5h-16.566c-4.143 0-7.5 3.358-7.5 7.5s3.357 7.5 7.5 7.5z" fill="#ffffff"/><path d="m380.534 329.767c8.547 0 15.5-6.953 15.5-15.5v-99.967c0-8.547-6.953-15.5-15.5-15.5h-249.067c-8.547 0-15.5 6.953-15.5 15.5v99.967c0 8.547 6.953 15.5 15.5 15.5zm-249.567-15.5v-99.967c0-.276.225-.5.5-.5h249.066c.275 0 .5.224.5.5v99.967c0 .276-.225.5-.5.5h-249.066c-.275 0-.5-.224-.5-.5z" fill="#ffffff"/><path d="m156.6 296.633h33.134c4.143 0 7.5-3.358 7.5-7.5s-3.357-7.5-7.5-7.5h-25.634v-42.2c0-4.142-3.357-7.5-7.5-7.5s-7.5 3.358-7.5 7.5v49.7c0 4.142 3.358 7.5 7.5 7.5z" fill="#ffffff"/><path d="m222.867 296.633c4.143 0 7.5-3.358 7.5-7.5v-49.7c0-4.142-3.357-7.5-7.5-7.5s-7.5 3.358-7.5 7.5v49.7c0 4.142 3.357 7.5 7.5 7.5z" fill="#ffffff"/><path d="m322.267 296.633h33.134c4.143 0 7.5-3.358 7.5-7.5s-3.357-7.5-7.5-7.5h-25.634v-9.85h17.35c4.143 0 7.5-3.358 7.5-7.5s-3.357-7.5-7.5-7.5h-17.35v-9.85h25.634c4.143 0 7.5-3.358 7.5-7.5s-3.357-7.5-7.5-7.5h-33.134c-4.143 0-7.5 3.358-7.5 7.5v49.7c0 4.142 3.358 7.5 7.5 7.5z" fill="#ffffff"/><path d="m265.452 291.505c1.021 3.063 3.887 5.128 7.115 5.128s6.095-2.066 7.115-5.128l16.567-49.7c1.31-3.929-.814-8.177-4.743-9.487-3.933-1.311-8.178.813-9.487 4.744l-9.452 28.355-9.451-28.355c-1.309-3.93-5.558-6.055-9.487-4.744-3.929 1.31-6.053 5.557-4.743 9.487z" fill="#ffffff"/><path d="m172.678 44.466c1.657 0 3.325-.546 4.714-1.67 22.143-17.924 50.06-27.796 78.608-27.796s56.465 9.871 78.607 27.795c3.221 2.607 7.944 2.109 10.548-1.111 2.606-3.22 2.109-7.942-1.11-10.548-24.804-20.078-56.072-31.136-88.045-31.136s-63.241 11.058-88.046 31.137c-3.22 2.606-3.717 7.329-1.11 10.548 1.482 1.831 3.649 2.781 5.834 2.781z" fill="#ffffff"/><path d="m323.108 74.207c2.03 0 4.054-.82 5.533-2.435 2.797-3.055 2.589-7.799-.466-10.596-19.747-18.084-45.38-28.043-72.175-28.043-26.793 0-52.424 9.958-72.172 28.04-3.056 2.797-3.265 7.542-.467 10.597s7.54 3.264 10.596.467c16.976-15.543 39.01-24.103 62.043-24.103 23.035 0 45.07 8.561 62.044 24.105 1.44 1.318 3.254 1.968 5.064 1.968z" fill="#ffffff"/><path d="m256 66.267c-21.678 0-42.171 9.481-56.224 26.011-2.684 3.156-2.3 7.889.856 10.572 3.154 2.683 7.889 2.298 10.571-.856 11.2-13.173 27.528-20.727 44.797-20.727 17.272 0 33.6 7.555 44.797 20.729 1.484 1.745 3.594 2.643 5.719 2.643 1.717 0 3.442-.586 4.853-1.786 3.156-2.683 3.54-7.416.858-10.572-14.053-16.532-34.547-26.014-56.227-26.014z" fill="#ffffff"/></g><g transform="matrix(0.07298957134755188 -0.0308802030497986 0.0308802030497986 0.07298957134755188 283.26998165311227 168.1226364430982)" id="L1_9"><path d="m487.932 33.133h-.782v-17.35c0-8.702-7.08-15.783-15.783-15.783h-347.9c-8.703 0-15.783 7.081-15.783 15.783v183.017h-58.767c-4.143 0-7.5 3.358-7.5 7.5v25.633h-25.632c-4.143 0-7.5 3.358-7.5 7.5v36.267c0 4.142 3.357 7.5 7.5 7.5s7.5-3.358 7.5-7.5v-28.767h18.133v191.299c0 22.405 18.229 40.633 40.634 40.633s40.633-18.228 40.633-40.633v-422.449c0-.432.352-.783.783-.783h347.899c.432 0 .783.352.783.783v17.35h-35.483c-4.143 0-7.5 3.358-7.5 7.5s3.357 7.5 7.5 7.5h51.266c.432 0 .783.352.783.783v422.451c0 14.134-11.498 25.632-25.632 25.632h-336.512c17.754-13.483 29.245-34.805 29.245-58.768v-389.314c0-.432.352-.783.784-.783h250.065c4.143 0 7.5-3.358 7.5-7.5s-3.357-7.5-7.5-7.5h-250.065c-8.703 0-15.784 7.08-15.784 15.783v389.316c0 32.404-26.362 58.767-58.766 58.767s-58.767-26.363-58.767-58.767v-132.534c0-4.142-3.357-7.5-7.5-7.5s-7.5 3.358-7.5 7.5v132.534c0 40.662 33.071 73.744 73.728 73.766.013 0 .026.002.039.002h381.032c22.404 0 40.632-18.228 40.632-40.632v-422.452c0-8.704-7.08-15.784-15.783-15.784zm-405.881 430.733c-14.135 0-25.634-11.499-25.634-25.633v-198.8-25.633h51.267v224.433c0 14.134-11.499 25.633-25.633 25.633z" fill="#ffffff"/><path d="m197.234 156.6v-34.497l18.926 37.851c1.291 2.583 3.915 4.147 6.706 4.146.571 0 1.149-.065 1.726-.201 3.385-.799 5.776-3.821 5.776-7.299v-66.267c0-4.142-3.357-7.5-7.5-7.5s-7.5 3.358-7.5 7.5v34.497l-18.926-37.851c-1.556-3.111-5.041-4.744-8.432-3.945-3.385.799-5.776 3.821-5.776 7.299v66.267c0 4.142 3.357 7.5 7.5 7.5 4.142 0 7.5-3.358 7.5-7.5z" fill="#ffffff"/><path d="m289.134 97.833c4.143 0 7.5-3.358 7.5-7.5s-3.357-7.5-7.5-7.5h-33.134c-4.143 0-7.5 3.358-7.5 7.5v66.267c0 4.142 3.357 7.5 7.5 7.5h33.134c4.143 0 7.5-3.358 7.5-7.5s-3.357-7.5-7.5-7.5h-25.634v-18.133h25.634c4.143 0 7.5-3.358 7.5-7.5s-3.357-7.5-7.5-7.5h-25.634v-18.134z" fill="#ffffff"/><path d="m338.708 164.099c3.366.039 6.404-2.174 7.337-5.439l9.354-32.744 9.357 32.744c.921 3.224 3.867 5.439 7.21 5.439.042 0 .084 0 .126-.001 3.395-.057 6.328-2.386 7.151-5.68l16.566-66.267c1.004-4.018-1.438-8.09-5.457-9.095-4.017-1.005-8.09 1.438-9.096 5.457l-9.773 39.095-8.873-31.053c-.92-3.22-3.862-5.439-7.211-5.439s-6.292 2.22-7.212 5.439l-8.871 31.052-9.773-39.094c-1.005-4.019-5.079-6.462-9.096-5.457-4.019 1.004-6.461 5.077-5.457 9.095l16.566 66.267c.824 3.294 3.758 5.624 7.152 5.681z" fill="#ffffff"/><path d="m438.234 97.833c4.999 0 9.066 4.067 9.066 9.067 0 4.142 3.357 7.5 7.5 7.5s7.5-3.358 7.5-7.5c0-13.271-10.796-24.067-24.066-24.067s-24.067 10.796-24.067 24.067c0 13.27 10.797 24.066 24.067 24.066 4.999 0 9.066 4.067 9.066 9.067 0 4.999-4.067 9.066-9.066 9.066-5 0-9.067-4.067-9.067-9.066 0-4.142-3.357-7.5-7.5-7.5s-7.5 3.358-7.5 7.5c0 13.27 10.797 24.066 24.067 24.066 13.271 0 24.066-10.796 24.066-24.066 0-13.271-10.796-24.067-24.066-24.067-5 0-9.067-4.067-9.067-9.066 0-5 4.067-9.067 9.067-9.067z" fill="#ffffff"/><path d="m470.583 197.733c0-8.547-6.953-15.5-15.5-15.5h-265.632c-8.547 0-15.5 6.953-15.5 15.5v17.133c0 8.547 6.953 15.5 15.5 15.5h265.633c8.547 0 15.5-6.953 15.5-15.5v-17.133zm-15 17.133c0 .276-.225.5-.5.5h-265.632c-.275 0-.5-.224-.5-.5v-17.133c0-.276.225-.5.5-.5h265.633c.275 0 .5.224.5.5v17.133z" fill="#ffffff"/><path d="m189.451 362.899h116.533c8.547 0 15.5-6.953 15.5-15.5v-83.399c0-8.547-6.953-15.5-15.5-15.5h-116.533c-8.547 0-15.5 6.953-15.5 15.5v83.4c0 8.546 6.953 15.499 15.5 15.499zm-.5-98.899c0-.276.225-.5.5-.5h116.533c.275 0 .5.224.5.5v83.4c0 .276-.225.5-.5.5h-116.533c-.275 0-.5-.224-.5-.5z" fill="#ffffff"/><path d="m463.083 248.499h-115.966c-4.143 0-7.5 3.358-7.5 7.5s3.357 7.5 7.5 7.5h115.967c4.143 0 7.5-3.358 7.5-7.5-.001-4.142-3.358-7.5-7.501-7.5z" fill="#ffffff"/><path d="m463.083 281.633h-49.7c-4.143 0-7.5 3.358-7.5 7.5s3.357 7.5 7.5 7.5h49.7c4.143 0 7.5-3.358 7.5-7.5s-3.357-7.5-7.5-7.5z" fill="#ffffff"/><path d="m463.083 314.766h-115.966c-4.143 0-7.5 3.358-7.5 7.5s3.357 7.5 7.5 7.5h115.967c4.143 0 7.5-3.358 7.5-7.5-.001-4.142-3.358-7.5-7.501-7.5z" fill="#ffffff"/><path d="m463.083 347.899h-115.966c-4.143 0-7.5 3.358-7.5 7.5s3.357 7.5 7.5 7.5h115.967c4.143 0 7.5-3.358 7.5-7.5-.001-4.142-3.358-7.5-7.501-7.5z" fill="#ffffff"/><path d="m463.083 381.033h-281.632c-4.143 0-7.5 3.358-7.5 7.5s3.357 7.5 7.5 7.5h281.633c4.143 0 7.5-3.358 7.5-7.5-.001-4.142-3.358-7.5-7.501-7.5z" fill="#ffffff"/><path d="m463.083 414.166h-281.632c-4.143 0-7.5 3.358-7.5 7.5s3.357 7.5 7.5 7.5h281.633c4.143 0 7.5-3.358 7.5-7.5-.001-4.142-3.358-7.5-7.501-7.5z" fill="#ffffff"/><path d="m463.083 447.299h-281.632c-4.143 0-7.5 3.358-7.5 7.5s3.357 7.5 7.5 7.5h281.633c4.143 0 7.5-3.358 7.5-7.5-.001-4.142-3.358-7.5-7.501-7.5z" fill="#ffffff"/></g><g transform="matrix(0.09138114820680938 -0.017133965838510585 0.017133965838510585 0.09138114820680938 20.463688640899083 100.66366169531457)" id="L1_10"><path d="m322.267 197.233c13.27 0 24.067-10.796 24.067-24.067 0-13.27-10.796-24.066-24.067-24.066s-24.066 10.796-24.066 24.066c-.001 13.271 10.795 24.067 24.066 24.067zm0-33.133c4.999 0 9.067 4.067 9.067 9.066s-4.067 9.067-9.067 9.067c-4.999 0-9.066-4.067-9.066-9.067-.001-4.999 4.067-9.066 9.066-9.066z" fill="#ffffff"/><path d="m90.333 238.65c-4.142 0-7.5 3.358-7.5 7.5v42.983c0 4.142 3.358 7.5 7.5 7.5h165.667c4.142 0 7.5-3.358 7.5-7.5v-99.4c0-4.142-3.358-7.5-7.5-7.5h-165.667c-4.142 0-7.5 3.358-7.5 7.5v26.417c0 4.142 3.358 7.5 7.5 7.5s7.5-3.358 7.5-7.5v-18.917h150.667v84.4h-150.667v-35.483c0-4.142-3.357-7.5-7.5-7.5z" fill="#ffffff"/><path d="m305.7 296.633h33.133c4.142 0 7.5-3.358 7.5-7.5s-3.358-7.5-7.5-7.5h-33.133c-4.142 0-7.5 3.358-7.5 7.5s3.358 7.5 7.5 7.5z" fill="#ffffff"/><path d="m496.217 149.1h-24.85c-.251 0-.501.013-.749.038-.182.018-.359.049-.537.08-.064.011-.128.017-.191.029-.21.042-.415.096-.619.155-.03.009-.061.014-.091.023-.207.063-.409.138-.608.218-.027.011-.055.019-.081.03-.189.079-.372.168-.552.261-.037.019-.075.034-.112.054-.167.089-.327.189-.486.29-.048.03-.098.057-.145.088-.151.101-.295.213-.438.324-.05.039-.103.073-.151.113-.189.156-.371.32-.545.493l-47.502 47.504h-22.527v-42.2c0-22.405-18.228-40.633-40.633-40.633h-58.767v-34.7h18.133v.783c0 8.703 7.081 15.784 15.783 15.784h74.55c11.064 0 21.408-4.368 29.125-12.3 7.715-7.929 11.796-18.395 11.493-29.47-.597-21.778-19.128-39.497-41.307-39.497h-73.86c-8.703 0-15.783 7.08-15.783 15.783v.783h-19.337c-3.16-9.608-12.211-16.566-22.863-16.566h-109.432c-9.175 0-17.423 5.098-21.526 13.304l-12.872 25.743c-4.297-3.753-9.856-5.914-15.807-5.914h-72.297c-22.405 0-40.633 18.228-40.633 40.634v231.933c0 22.405 18.228 40.633 40.633 40.633h14.827c4.142 0 7.5-3.358 7.5-7.5s-3.358-7.5-7.5-7.5h-14.827c-14.134 0-25.633-11.499-25.633-25.633v-191.3h141.6 198.8c14.134 0 25.633 11.499 25.633 25.633v49.7 66.267 49.7c0 14.134-11.499 25.633-25.633 25.633h-82.833-149.1-38.007c-4.142 0-7.5 3.358-7.5 7.5s3.358 7.5 7.5 7.5h30.507v17.633c0 7.664 5.597 14.029 12.914 15.266l-37.187 89.249c-.965 2.315-.708 4.959.683 7.045s3.732 3.34 6.24 3.34h41.416c3.028 0 5.758-1.82 6.923-4.615l26.994-64.785v61.901c0 4.142 3.358 7.5 7.5 7.5h33.133c4.142 0 7.5-3.358 7.5-7.5v-61.9l26.994 64.785c1.164 2.795 3.895 4.615 6.923 4.615h41.416c2.508 0 4.85-1.253 6.24-3.34 1.391-2.086 1.648-4.73.683-7.045l-37.187-89.249c7.318-1.237 12.914-7.602 12.914-15.266v-17.634h75.334c22.405 0 40.633-18.228 40.633-40.633v-42.2h22.527l47.502 47.502c.173.173.355.338.545.493.049.04.102.074.151.113.143.112.287.223.438.324.047.032.097.058.145.088.159.101.319.201.486.29.036.02.075.035.112.054.181.093.364.182.552.261.027.011.055.019.081.03.199.08.401.155.608.218.03.009.061.015.091.023.203.059.409.113.619.155.063.013.128.018.191.029.178.031.355.062.537.08.248.025.497.038.749.038h24.85c8.703 0 15.783-7.08 15.783-15.783v-149.1c0-8.702-7.08-15.782-15.783-15.782zm-133.317-117.533h41.511c14.132 0 25.936 11.174 26.313 24.908.191 6.992-2.383 13.597-7.249 18.599-4.869 5.004-11.394 7.76-18.374 7.76h-42.2v-51.267zm-33.133 42.2v-33.134-8.283c0-.432.352-.783.783-.783h17.35v51.267h-17.35c-.432 0-.783-.352-.783-.784zm-33.134-25.634h18.133v18.133h-18.133zm-281.633 67.834v-25.633c0-14.135 11.499-25.634 25.633-25.634h72.297c3.44 0 6.542 1.908 8.093 4.978l23.385 46.289zm233.5 0h-87.286l-4.442-8.793 21.237-42.474h70.491zm33.133-42.2v42.2h-18.133v-58.767c0-4.142-3.358-7.5-7.5-7.5h-82.627c-2.841 0-5.438 1.605-6.708 4.146l-18.322 36.645-10.19-20.169 16.872-33.743c1.545-3.091 4.653-5.012 8.109-5.012h109.432c4.999 0 9.066 4.067 9.066 9.066v33.134zm-146.6 406.666h-25.166l35.166-84.4h25.167zm72.05 0h-18.133v-84.4h18.133zm7.5-99.4h-33.133-41.417-8.566c-.276 0-.5-.224-.5-.5v-17.633h134.1v17.633c0 .276-.224.5-.5.5h-8.567zm71.583 99.4h-25.166l-35.167-84.4h25.167zm128-215.366h-18.133v-51.267h18.133zm49.701 39.093-34.7-34.7v-60.054l34.7-34.7zm33.133 9.823c0 .432-.352.783-.783.783h-17.35v-150.666h17.35c.432 0 .783.352.783.783z" fill="#ffffff"/><path d="m139.25 243.575v-8.284c0-4.142-3.358-7.5-7.5-7.5s-7.5 3.358-7.5 7.5v8.284c0 4.142 3.358 7.5 7.5 7.5s7.5-3.358 7.5-7.5z" fill="#ffffff"/><path d="m180.666 243.575v-8.284c0-4.142-3.358-7.5-7.5-7.5s-7.5 3.358-7.5 7.5v8.284c0 4.142 3.358 7.5 7.5 7.5 4.143 0 7.5-3.358 7.5-7.5z" fill="#ffffff"/><path d="m222.083 243.575v-8.284c0-4.142-3.358-7.5-7.5-7.5s-7.5 3.358-7.5 7.5v8.284c0 4.142 3.358 7.5 7.5 7.5 4.143 0 7.5-3.358 7.5-7.5z" fill="#ffffff"/></g></defs><g fi:class="KUsePattern"><pattern id="pattern_L1_0" width="350" height="350" patternUnits="userSpaceOnUse"><use xlink:href="#L1_0" x="-350" y="-350"/><use xlink:href="#L1_0" x="0" y="-350"/><use xlink:href="#L1_0" x="350" y="-350"/><use xlink:href="#L1_0" x="-350" y="0"/><use xlink:href="#L1_0" x="0" y="0"/><use xlink:href="#L1_0" x="350" y="0"/><use xlink:href="#L1_0" x="-350" y="350"/><use xlink:href="#L1_0" x="0" y="350"/><use xlink:href="#L1_0" x="350" y="350"/></pattern><rect x="0" y="0" width="100%" height="100%" fill="url(#pattern_L1_0)"/></g><g fi:class="KUsePattern"><pattern id="pattern_L1_1" width="350" height="350" patternUnits="userSpaceOnUse"><use xlink:href="#L1_1" x="-350" y="-350"/><use xlink:href="#L1_1" x="0" y="-350"/><use xlink:href="#L1_1" x="350" y="-350"/><use xlink:href="#L1_1" x="-350" y="0"/><use xlink:href="#L1_1" x="0" y="0"/><use xlink:href="#L1_1" x="350" y="0"/><use xlink:href="#L1_1" x="-350" y="350"/><use xlink:href="#L1_1" x="0" y="350"/><use xlink:href="#L1_1" x="350" y="350"/></pattern><rect x="0" y="0" width="100%" height="100%" fill="url(#pattern_L1_1)"/></g><g fi:class="KUsePattern"><pattern id="pattern_L1_2" width="350" height="350" patternUnits="userSpaceOnUse"><use xlink:href="#L1_2" x="-350" y="-350"/><use xlink:href="#L1_2" x="0" y="-350"/><use xlink:href="#L1_2" x="350" y="-350"/><use xlink:href="#L1_2" x="-350" y="0"/><use xlink:href="#L1_2" x="0" y="0"/><use xlink:href="#L1_2" x="350" y="0"/><use xlink:href="#L1_2" x="-350" y="350"/><use xlink:href="#L1_2" x="0" y="350"/><use xlink:href="#L1_2" x="350" y="350"/></pattern><rect x="0" y="0" width="100%" height="100%" fill="url(#pattern_L1_2)"/></g><g fi:class="KUsePattern"><pattern id="pattern_L1_3" width="350" height="350" patternUnits="userSpaceOnUse"><use xlink:href="#L1_3" x="-350" y="-350"/><use xlink:href="#L1_3" x="0" y="-350"/><use xlink:href="#L1_3" x="350" y="-350"/><use xlink:href="#L1_3" x="-350" y="0"/><use xlink:href="#L1_3" x="0" y="0"/><use xlink:href="#L1_3" x="350" y="0"/><use xlink:href="#L1_3" x="-350" y="350"/><use xlink:href="#L1_3" x="0" y="350"/><use xlink:href="#L1_3" x="350" y="350"/></pattern><rect x="0" y="0" width="100%" height="100%" fill="url(#pattern_L1_3)"/></g><g fi:class="KUsePattern"><pattern id="pattern_L1_4" width="350" height="350" patternUnits="userSpaceOnUse"><use xlink:href="#L1_4" x="-350" y="-350"/><use xlink:href="#L1_4" x="0" y="-350"/><use xlink:href="#L1_4" x="350" y="-350"/><use xlink:href="#L1_4" x="-350" y="0"/><use xlink:href="#L1_4" x="0" y="0"/><use xlink:href="#L1_4" x="350" y="0"/><use xlink:href="#L1_4" x="-350" y="350"/><use xlink:href="#L1_4" x="0" y="350"/><use xlink:href="#L1_4" x="350" y="350"/></pattern><rect x="0" y="0" width="100%" height="100%" fill="url(#pattern_L1_4)"/></g><g fi:class="KUsePattern"><pattern id="pattern_L1_5" width="350" height="350" patternUnits="userSpaceOnUse"><use xlink:href="#L1_5" x="-350" y="-350"/><use xlink:href="#L1_5" x="0" y="-350"/><use xlink:href="#L1_5" x="350" y="-350"/><use xlink:href="#L1_5" x="-350" y="0"/><use xlink:href="#L1_5" x="0" y="0"/><use xlink:href="#L1_5" x="350" y="0"/><use xlink:href="#L1_5" x="-350" y="350"/><use xlink:href="#L1_5" x="0" y="350"/><use xlink:href="#L1_5" x="350" y="350"/></pattern><rect x="0" y="0" width="100%" height="100%" fill="url(#pattern_L1_5)"/></g><g fi:class="KUsePattern"><pattern id="pattern_L1_6" width="350" height="350" patternUnits="userSpaceOnUse"><use xlink:href="#L1_6" x="-350" y="-350"/><use xlink:href="#L1_6" x="0" y="-350"/><use xlink:href="#L1_6" x="350" y="-350"/><use xlink:href="#L1_6" x="-350" y="0"/><use xlink:href="#L1_6" x="0" y="0"/><use xlink:href="#L1_6" x="350" y="0"/><use xlink:href="#L1_6" x="-350" y="350"/><use xlink:href="#L1_6" x="0" y="350"/><use xlink:href="#L1_6" x="350" y="350"/></pattern><rect x="0" y="0" width="100%" height="100%" fill="url(#pattern_L1_6)"/></g><g fi:class="KUsePattern"><pattern id="pattern_L1_7" width="350" height="350" patternUnits="userSpaceOnUse"><use xlink:href="#L1_7" x="-350" y="-350"/><use xlink:href="#L1_7" x="0" y="-350"/><use xlink:href="#L1_7" x="350" y="-350"/><use xlink:href="#L1_7" x="-350" y="0"/><use xlink:href="#L1_7" x="0" y="0"/><use xlink:href="#L1_7" x="350" y="0"/><use xlink:href="#L1_7" x="-350" y="350"/><use xlink:href="#L1_7" x="0" y="350"/><use xlink:href="#L1_7" x="350" y="350"/></pattern><rect x="0" y="0" width="100%" height="100%" fill="url(#pattern_L1_7)"/></g><g fi:class="KUsePattern"><pattern id="pattern_L1_8" width="350" height="350" patternUnits="userSpaceOnUse"><use xlink:href="#L1_8" x="-350" y="-350"/><use xlink:href="#L1_8" x="0" y="-350"/><use xlink:href="#L1_8" x="350" y="-350"/><use xlink:href="#L1_8" x="-350" y="0"/><use xlink:href="#L1_8" x="0" y="0"/><use xlink:href="#L1_8" x="350" y="0"/><use xlink:href="#L1_8" x="-350" y="350"/><use xlink:href="#L1_8" x="0" y="350"/><use xlink:href="#L1_8" x="350" y="350"/></pattern><rect x="0" y="0" width="100%" height="100%" fill="url(#pattern_L1_8)"/></g><g fi:class="KUsePattern"><pattern id="pattern_L1_9" width="350" height="350" patternUnits="userSpaceOnUse"><use xlink:href="#L1_9" x="-350" y="-350"/><use xlink:href="#L1_9" x="0" y="-350"/><use xlink:href="#L1_9" x="350" y="-350"/><use xlink:href="#L1_9" x="-350" y="0"/><use xlink:href="#L1_9" x="0" y="0"/><use xlink:href="#L1_9" x="350" y="0"/><use xlink:href="#L1_9" x="-350" y="350"/><use xlink:href="#L1_9" x="0" y="350"/><use xlink:href="#L1_9" x="350" y="350"/></pattern><rect x="0" y="0" width="100%" height="100%" fill="url(#pattern_L1_9)"/></g><g fi:class="KUsePattern"><pattern id="pattern_L1_10" width="350" height="350" patternUnits="userSpaceOnUse"><use xlink:href="#L1_10" x="-350" y="-350"/><use xlink:href="#L1_10" x="0" y="-350"/><use xlink:href="#L1_10" x="350" y="-350"/><use xlink:href="#L1_10" x="-350" y="0"/><use xlink:href="#L1_10" x="0" y="0"/><use xlink:href="#L1_10" x="350" y="0"/><use xlink:href="#L1_10" x="-350" y="350"/><use xlink:href="#L1_10" x="0" y="350"/><use xlink:href="#L1_10" x="350" y="350"/></pattern><rect x="0" y="0" width="100%" height="100%" fill="url(#pattern_L1_10)"/></g></svg>