<svg xmlns="http://www.w3.org/2000/svg" xmlns:xlink="http://www.w3.org/1999/xlink" xmlns:fi="http://pattern.flaticon.com/" x="0" y="0" width="700" height="350" viewBox="0 0 700 350"><rect x="0px" y="0px" width="100%" height="100%" opacity="1" fill="#1affe3"/><defs><g transform="matrix(0.12142319056453793 -0.0485692744591453 0.0485692744591453 0.12142319056453793 112.48192895393709 93.3493974770195)" id="L1_0"><path d="M442.434,52.012L275.781,2.863c-12.938-3.817-26.621-3.817-39.563,0L69.567,52.011    c-12.304,3.628-20.897,15.12-20.897,27.948v138.014c0,63.872,19.013,125.375,54.984,177.86    c35.118,51.243,83.991,90.665,141.33,114c3.552,1.445,7.284,2.168,11.016,2.168s7.464-0.724,11.015-2.168    c57.339-23.335,106.212-62.755,141.33-114c35.97-52.486,54.983-113.988,54.983-177.86V79.96    C463.33,67.132,454.737,55.639,442.434,52.012z M440.02,217.972c0,59.147-17.602,116.093-50.901,164.681    c-32.53,47.466-77.79,83.978-130.889,105.587c-1.438,0.585-3.021,0.585-4.459,0c-53.099-21.609-98.36-58.12-130.889-105.587    C89.583,334.065,71.981,277.12,71.981,217.972V79.959c0-2.565,1.719-4.863,4.18-5.589l166.652-49.149    c4.314-1.273,8.751-1.908,13.188-1.908c4.436,0,8.873,0.636,13.187,1.909L435.842,74.37c2.459,0.725,4.178,3.023,4.178,5.589    V217.972z"/><path d="M385.15,103.555l-124.206-36.63c-3.234-0.953-6.652-0.955-9.888,0l-124.203,36.63c-7.382,2.178-12.539,9.074-12.539,16.77    v97.647c0,51.598,15.608,101.088,45.134,143.122c22.892,32.593,53.481,59.502,88.458,77.82c2.534,1.328,5.314,1.991,8.095,1.991    c2.78,0,5.56-0.663,8.095-1.991c34.976-18.317,65.565-45.228,88.458-77.82c29.526-42.033,45.134-91.524,45.134-143.122v-97.647    C397.687,112.627,392.531,105.732,385.15,103.555z M374.378,217.972c0,46.777-14.142,91.635-40.897,129.723    c-20.172,28.717-46.912,52.562-77.48,69.12c-30.568-16.559-57.309-40.403-77.48-69.12    c-26.755-38.088-40.897-82.946-40.897-129.723v-93.29L256.001,89.77l118.377,34.912V217.972z"/></g><g transform="matrix(0.1171875 0 0 0.1171875 227 198.9999999570847)" id="L1_2"><path d="M457.602,54.355c-72.417-72.416-190.245-72.416-262.661,0c-35.081,35.079-54.399,81.721-54.399,131.331    c0,45.193,16.039,87.917,45.413,121.688l-22.119,22.119l-22.542-22.542c-2.47-2.47-5.821-3.858-9.314-3.858    c-3.493,0-6.844,1.388-9.314,3.858L17.055,412.563C6.057,423.559,0,438.18,0,453.733c0,15.552,6.057,30.174,17.053,41.17    c10.998,10.998,25.619,17.054,41.17,17.054c15.551,0,30.174-6.057,41.17-17.053l105.612-105.61c2.47-2.47,3.858-5.821,3.858-9.314    c0-3.493-1.388-6.844-3.858-9.314l-22.542-22.542l22.126-22.126c34.793,30.215,78.234,45.331,121.682,45.331    c47.561,0,95.123-18.104,131.331-54.311C492.68,281.938,512,235.298,512,185.688C512,136.075,492.682,89.434,457.602,54.355z     M80.765,476.275c-6.021,6.021-14.026,9.337-22.542,9.337c-8.515,0-16.521-3.317-22.542-9.338    c-6.02-6.02-9.337-14.026-9.337-22.54s3.317-16.521,9.338-22.542l58.934-58.934L139.7,417.34L80.765,476.275z M158.33,398.711    l-45.084-45.084l18.734-18.734l45.084,45.085L158.33,398.711z M438.973,298.388c-62.144,62.146-163.259,62.146-225.403,0    c-30.104-30.104-46.683-70.128-46.683-112.702c0-42.574,16.579-82.598,46.683-112.701c31.072-31.072,71.887-46.609,112.702-46.609    c40.814,0,81.63,15.535,112.702,46.609c30.104,30.103,46.683,70.128,46.683,112.701S469.077,268.284,438.973,298.388z"/><path d="M417.234,94.721c-50.158-50.156-131.769-50.158-181.927,0c-50.156,50.158-50.156,131.769,0.001,181.927    c25.079,25.077,58.02,37.617,90.963,37.617s65.885-12.54,90.964-37.617v-0.001C467.391,226.491,467.391,144.879,417.234,94.721z     M398.605,258.02c-39.886,39.886-104.783,39.886-144.669,0.001c-39.886-39.886-39.886-104.784-0.001-144.67    c19.945-19.946,46.136-29.914,72.336-29.914c26.193,0,52.394,9.974,72.334,29.914C438.491,153.236,438.491,218.134,398.605,258.02    z"/><path d="M375.321,136.636c-27.048-27.045-71.053-27.045-98.1,0c-5.144,5.144-5.144,13.484,0,18.63    c5.144,5.144,13.484,5.144,18.63,0c16.772-16.774,44.068-16.774,60.842,0c2.573,2.573,5.943,3.858,9.314,3.858    c3.371,0,6.743-1.286,9.314-3.858C380.465,150.122,380.465,141.781,375.321,136.636z"/></g><g transform="matrix(0.1171877309679985 0 0 0.1171877309679985 320 286.00000248909475)"><path d="M481.091,27.937H30.909C13.866,27.937,0,41.803,0,58.846v310.819c0,17.043,13.866,30.909,30.909,30.909h154.26v22.49    c0,20.617-16.774,37.391-37.391,37.391h-33.997c-6.518,0-11.803,5.284-11.803,11.803c0,6.519,5.285,11.803,11.803,11.803h284.436    c6.518,0,11.803-5.284,11.803-11.803c0-6.519-5.285-11.803-11.803-11.803h-33.998c-20.617,0-37.391-16.774-37.391-37.391v-22.489    h154.26c17.043,0,30.91-13.866,30.91-30.909V58.846C512,41.803,498.134,27.937,481.091,27.937z M195.92,460.457    c8.046-10.336,12.857-23.308,12.857-37.391v-22.49h94.447v22.49c0,14.083,4.811,27.056,12.857,37.391H195.92z M488.394,369.666    c0,4.027-3.276,7.304-7.304,7.304H30.909c-4.027,0-7.304-3.276-7.304-7.304v-62.033h464.789V369.666z M488.394,284.026H23.606    V58.846c0-4.027,3.276-7.304,7.304-7.304h450.18c4.027,0,7.305,3.276,7.305,7.304V284.026z"/><circle cx="256" cy="342" r="12"/><path d="M276.238,109.254c-4.61-4.609-12.081-4.609-16.693,0l-83.414,83.414c-4.609,4.609-4.609,12.083,0,16.693    c2.306,2.305,5.325,3.457,8.347,3.457c3.022,0,6.041-1.152,8.346-3.457l83.414-83.414    C280.847,121.338,280.847,113.864,276.238,109.254z"/><path d="M325.678,157.593c-4.608-4.609-12.079-4.609-16.692-0.001l-33.23,33.228c-4.609,4.61-4.609,12.084,0,16.693    c2.305,2.305,5.325,3.457,8.346,3.457c3.02,0,6.041-1.152,8.346-3.457l33.23-33.228    C330.287,169.676,330.287,162.202,325.678,157.593z"/></g></defs><g fi:class="KUsePattern"><pattern id="pattern_L1_0" width="350" height="350" patternUnits="userSpaceOnUse"><use xlink:href="#L1_0" x="-350" y="-350"/><use xlink:href="#L1_0" x="0" y="-350"/><use xlink:href="#L1_0" x="350" y="-350"/><use xlink:href="#L1_0" x="-350" y="0"/><use xlink:href="#L1_0" x="0" y="0"/><use xlink:href="#L1_0" x="350" y="0"/><use xlink:href="#L1_0" x="-350" y="350"/><use xlink:href="#L1_0" x="0" y="350"/><use xlink:href="#L1_0" x="350" y="350"/></pattern><rect x="0" y="0" width="100%" height="100%" fill="url(#pattern_L1_0)"/></g><g fi:class="KUsePattern"><pattern id="pattern_L1_2" width="350" height="350" patternUnits="userSpaceOnUse"><use xlink:href="#L1_2" x="-350" y="-350"/><use xlink:href="#L1_2" x="0" y="-350"/><use xlink:href="#L1_2" x="350" y="-350"/><use xlink:href="#L1_2" x="-350" y="0"/><use xlink:href="#L1_2" x="0" y="0"/><use xlink:href="#L1_2" x="350" y="0"/><use xlink:href="#L1_2" x="-350" y="350"/><use xlink:href="#L1_2" x="0" y="350"/><use xlink:href="#L1_2" x="350" y="350"/></pattern><rect x="0" y="0" width="100%" height="100%" fill="url(#pattern_L1_2)"/></g><g fi:class="KUsePattern" transform="matrix(1 0 0 1 20 20)"><pattern id="pattern_UNKNOWN" width="350" height="350" patternUnits="userSpaceOnUse"><use xlink:href="#UNKNOWN" x="-350" y="-350"/><use xlink:href="#UNKNOWN" x="0" y="-350"/><use xlink:href="#UNKNOWN" x="350" y="-350"/><use xlink:href="#UNKNOWN" x="-350" y="0"/><use xlink:href="#UNKNOWN" x="0" y="0"/><use xlink:href="#UNKNOWN" x="350" y="0"/><use xlink:href="#UNKNOWN" x="-350" y="350"/><use xlink:href="#UNKNOWN" x="0" y="350"/><use xlink:href="#UNKNOWN" x="350" y="350"/></pattern><rect x="0" y="0" width="100%" height="100%" fill="url(#pattern_UNKNOWN)"/></g></svg>