<?xml version="1.0" encoding="UTF-8" ?>
<!DOCTYPE svg PUBLIC "-//W3C//DTD SVG 1.1//EN" "http://www.w3.org/Graphics/SVG/1.1/DTD/svg11.dtd">
<svg width="1901pt" height="609pt" viewBox="0 0 1901 609" version="1.1" xmlns="http://www.w3.org/2000/svg">
<g id="#22a8f4ff">
<path fill="#22a8f4" opacity="1.00" d=" M 26.05 53.96 C 100.76 37.46 175.49 21.05 250.20 4.57 C 252.30 4.06 254.49 4.09 256.58 4.62 C 329.68 21.95 402.79 39.27 475.90 56.60 C 479.05 57.43 482.52 57.73 485.20 59.78 C 488.39 62.10 490.25 66.11 489.90 70.05 C 488.70 88.92 487.33 107.78 486.11 126.65 C 478.80 131.90 471.79 137.56 464.70 143.09 C 466.26 120.67 467.72 98.24 469.27 75.82 C 399.50 59.29 329.72 42.79 259.95 26.24 C 256.98 25.67 253.97 24.25 250.92 25.15 C 179.79 40.85 108.65 56.48 37.52 72.17 C 45.35 192.09 53.18 312.01 61.00 431.93 C 61.44 437.79 61.63 443.67 62.25 449.51 C 63.33 450.21 64.41 450.91 65.48 451.64 C 59.94 455.97 54.41 460.34 48.86 464.65 C 45.85 463.02 43.35 460.29 42.57 456.90 C 42.03 454.13 42.02 451.29 41.80 448.49 C 33.49 320.99 25.10 193.49 16.83 65.99 C 16.41 60.43 20.58 55.02 26.05 53.96 Z" />
</g>
<g id="#858585ff">
<path fill="#858585" opacity="1.00" d=" M 84.93 110.90 C 83.03 105.20 87.16 98.60 93.04 97.64 C 96.31 96.87 99.43 98.38 102.39 99.56 C 126.43 109.22 150.51 118.79 174.55 128.46 C 175.98 128.88 177.36 129.96 178.91 129.66 C 186.65 128.30 194.28 126.14 202.16 125.71 C 217.42 124.42 232.76 124.40 248.05 123.65 C 258.71 122.82 269.31 125.00 279.98 124.55 C 290.78 124.07 301.42 126.26 312.12 127.29 C 317.97 127.74 323.67 129.11 329.37 130.44 C 356.18 119.92 382.94 109.26 409.74 98.71 C 415.11 96.40 421.84 99.58 423.59 105.11 C 424.96 108.62 423.53 112.26 422.36 115.58 C 414.56 138.79 406.77 162.01 399.00 185.23 C 410.76 226.75 422.51 268.27 434.28 309.79 C 435.93 314.93 434.54 320.86 430.70 324.67 C 403.38 353.69 376.07 382.71 348.76 411.73 C 346.42 414.42 343.47 416.68 341.88 419.94 C 332.97 436.99 323.93 453.97 315.02 471.01 C 314.56 472.13 313.69 472.95 312.61 473.48 C 295.90 482.79 279.22 492.16 262.52 501.49 C 258.23 504.03 252.66 504.23 248.26 501.87 C 230.53 492.54 212.83 483.15 195.12 473.80 C 193.98 473.36 193.42 472.26 192.87 471.27 C 183.42 454.04 173.84 436.89 164.38 419.66 C 162.91 416.90 160.46 414.89 158.40 412.61 C 131.02 383.65 103.58 354.75 76.24 325.76 C 72.94 322.10 71.76 316.69 73.20 311.97 C 85.35 269.91 97.54 227.87 109.72 185.81 C 101.47 160.84 93.12 135.89 84.93 110.90 M 98.67 111.84 C 106.48 135.47 114.29 159.10 122.16 182.70 C 122.48 183.99 123.27 185.34 122.74 186.68 C 110.32 229.82 97.67 272.91 85.36 316.08 C 86.73 319.24 89.97 321.30 92.12 324.00 C 119.01 352.42 145.91 380.83 172.80 409.25 C 173.61 410.13 174.25 411.15 174.84 412.20 C 183.68 428.31 192.64 444.35 201.48 460.46 C 202.36 461.90 202.93 463.77 204.66 464.42 C 221.47 473.23 238.19 482.22 255.03 490.97 C 271.56 481.87 288.03 472.64 304.43 463.33 C 314.27 445.75 323.07 427.53 332.94 409.97 C 362.29 378.64 391.78 347.43 421.18 316.15 C 423.24 314.54 421.38 311.91 421.06 309.89 C 409.22 268.23 397.45 226.56 385.64 184.90 C 393.74 160.71 401.87 136.53 409.98 112.34 C 383.63 122.70 357.34 133.22 330.97 143.49 C 325.00 143.08 319.19 140.69 313.15 140.24 C 301.78 139.18 290.48 136.82 279.01 137.30 C 270.34 137.64 261.73 136.24 253.08 136.21 C 237.74 136.87 222.38 137.21 207.06 138.05 C 196.82 138.48 186.94 141.38 176.88 142.98 C 150.73 132.83 124.76 122.17 98.67 111.84 Z" />
</g>
<g id="#24b9c9ff">
<path fill="#24b9c9" opacity="1.00" d=" M 464.70 143.09 C 471.79 137.56 478.80 131.90 486.11 126.65 C 478.70 236.47 471.23 346.29 463.83 456.11 C 463.81 460.16 461.74 464.11 458.28 466.27 C 393.39 510.75 328.50 555.24 263.61 599.74 C 260.47 601.97 257.08 604.51 253.00 604.20 C 248.70 604.18 245.44 601.12 242.09 598.88 C 177.62 554.19 113.25 509.36 48.72 464.76 L 48.86 464.65 C 54.41 460.34 59.94 455.97 65.48 451.64 C 128.14 495.12 190.79 538.63 253.45 582.11 C 316.93 538.64 380.36 495.11 443.82 451.62 C 450.81 348.78 457.73 245.93 464.70 143.09 Z" />
</g>
<g id="#1abc9cff">
<path fill="#1abc9c" opacity="1.00" d=" M 543.13 160.08 C 548.44 153.57 556.63 149.90 564.91 149.23 C 574.46 148.32 585.05 149.86 592.33 156.64 C 600.10 163.57 602.13 175.32 598.96 184.97 C 595.75 194.71 589.37 202.99 582.65 210.58 C 573.10 221.01 563.48 231.38 553.91 241.80 C 570.96 241.81 588.02 241.79 605.07 241.80 C 605.07 245.33 605.07 248.86 605.07 252.39 C 582.80 252.41 560.54 252.39 538.27 252.40 C 538.26 249.30 538.26 246.19 538.26 243.09 C 550.66 229.20 563.21 215.44 575.57 201.52 C 581.02 195.01 587.11 187.88 587.34 178.94 C 587.89 171.63 583.86 163.86 576.80 161.24 C 569.00 158.61 559.07 159.97 553.59 166.55 C 550.34 170.39 549.35 175.55 549.20 180.45 C 544.88 180.45 540.57 180.46 536.26 180.44 C 536.30 173.16 538.30 165.68 543.13 160.08 Z" />
<path fill="#1abc9c" opacity="1.00" d=" M 614.67 150.41 C 619.15 150.39 623.63 150.40 628.12 150.40 C 633.18 172.27 638.19 194.14 643.26 216.01 C 644.70 221.79 645.23 227.75 646.19 233.62 C 650.36 215.20 656.14 197.20 661.11 178.99 C 663.81 169.46 666.50 159.92 669.22 150.40 C 673.00 150.40 676.78 150.40 680.57 150.40 C 686.90 173.30 693.22 196.20 699.56 219.09 C 700.89 223.82 701.72 228.66 703.01 233.39 C 705.15 218.74 708.85 204.40 712.05 189.96 C 715.05 176.77 718.01 163.58 721.04 150.40 C 725.54 150.40 730.04 150.39 734.55 150.40 C 726.32 184.40 718.07 218.40 709.84 252.40 C 705.75 252.40 701.66 252.40 697.58 252.40 C 691.98 232.68 686.42 212.95 680.84 193.22 C 678.74 185.64 676.33 178.14 674.96 170.39 C 673.64 178.08 671.13 185.47 669.00 192.95 C 663.18 212.77 657.40 232.60 651.56 252.41 C 647.47 252.39 643.39 252.41 639.30 252.39 C 631.10 218.39 622.88 184.40 614.67 150.41 Z" />
<path fill="#1abc9c" opacity="1.00" d=" M 775.29 150.40 C 779.20 150.40 783.12 150.40 787.04 150.39 C 800.08 184.38 813.06 218.39 826.05 252.40 C 821.45 252.40 816.85 252.40 812.25 252.40 C 808.98 243.53 805.80 234.64 802.48 225.79 C 788.26 225.84 774.04 225.80 759.83 225.81 C 756.61 234.67 753.44 243.54 750.23 252.40 C 745.60 252.40 740.98 252.40 736.36 252.40 C 749.32 218.39 762.30 184.40 775.29 150.40 M 763.90 214.80 C 775.44 214.80 786.98 214.80 798.52 214.80 C 792.75 198.88 786.96 182.96 781.18 167.05 C 775.40 182.96 769.64 198.87 763.90 214.80 Z" />
<path fill="#1abc9c" opacity="1.00" d=" M 839.82 150.41 C 860.88 150.38 881.93 150.41 902.99 150.39 C 903.00 154.06 903.00 157.74 903.00 161.41 C 886.43 161.41 869.86 161.41 853.29 161.41 C 853.29 173.08 853.27 184.74 853.30 196.41 C 867.55 196.39 881.81 196.40 896.06 196.40 C 896.06 200.07 896.06 203.74 896.06 207.41 C 881.80 207.42 867.55 207.41 853.29 207.41 C 853.28 222.41 853.29 237.40 853.28 252.39 C 848.79 252.40 844.31 252.40 839.83 252.39 C 839.82 218.40 839.83 184.40 839.82 150.41 Z" />
</g>
<g id="#000000ff">
<path fill="#000000" opacity="1.00" d=" M 1204.50 149.66 C 1215.92 147.67 1228.47 149.99 1237.49 157.57 C 1247.57 165.96 1252.09 179.25 1253.03 191.99 C 1253.65 205.35 1253.77 219.41 1247.82 231.73 C 1243.49 241.26 1235.19 249.04 1225.07 252.00 C 1213.81 255.28 1200.98 254.27 1190.98 247.87 C 1183.84 243.40 1178.58 236.35 1175.49 228.58 C 1171.74 219.54 1171.02 209.62 1171.25 199.94 C 1171.02 187.66 1173.46 174.88 1180.67 164.71 C 1186.20 156.79 1194.98 151.29 1204.50 149.66 M 1206.17 161.22 C 1198.85 162.65 1192.83 168.01 1189.53 174.56 C 1184.81 183.57 1184.46 194.00 1184.64 203.95 C 1184.56 214.44 1186.23 225.72 1193.10 234.07 C 1202.50 246.01 1223.35 245.77 1232.35 233.48 C 1237.83 226.23 1239.47 216.91 1239.82 208.03 C 1239.91 199.35 1240.27 190.50 1238.00 182.03 C 1236.29 175.38 1232.77 168.92 1227.06 164.91 C 1221.06 160.69 1213.23 159.82 1206.17 161.22 Z" />
<path fill="#000000" opacity="1.00" d=" M 1729.20 149.29 C 1738.91 148.19 1749.22 150.06 1757.30 155.76 C 1765.52 161.40 1770.72 170.54 1773.23 180.03 C 1775.76 189.12 1775.57 198.65 1775.39 208.00 C 1775.03 218.12 1772.66 228.41 1767.09 236.98 C 1754.26 257.88 1720.82 259.51 1705.21 241.02 C 1697.32 231.95 1693.92 219.77 1693.52 207.94 C 1693.41 200.10 1693.15 192.18 1694.72 184.46 C 1696.45 175.64 1700.14 166.99 1706.41 160.43 C 1712.36 154.16 1720.61 150.23 1729.20 149.29 M 1727.32 161.47 C 1719.38 163.39 1713.37 169.96 1710.42 177.36 C 1706.39 187.01 1706.73 197.67 1706.91 207.92 C 1707.24 217.30 1709.37 227.17 1715.63 234.46 C 1725.15 245.99 1745.55 245.63 1754.49 233.57 C 1760.02 226.31 1761.67 216.93 1762.02 208.01 C 1762.11 199.29 1762.47 190.39 1760.16 181.88 C 1758.48 175.48 1755.14 169.27 1749.74 165.26 C 1743.40 160.55 1734.84 159.66 1727.32 161.47 Z" />
<path fill="#000000" opacity="1.00" d=" M 955.42 150.41 C 959.89 150.39 964.37 150.40 968.85 150.40 C 968.88 184.39 968.86 218.39 968.86 252.39 C 964.38 252.41 959.90 252.40 955.43 252.40 C 955.39 218.40 955.42 184.40 955.42 150.41 Z" />
<path fill="#000000" opacity="1.00" d=" M 993.43 150.41 C 997.92 150.39 1002.41 150.41 1006.91 150.39 C 1024.13 176.65 1041.20 203.01 1058.40 229.29 C 1058.43 202.99 1058.40 176.70 1058.42 150.40 C 1062.87 150.39 1067.32 150.40 1071.78 150.40 C 1071.80 184.40 1071.78 218.39 1071.79 252.39 C 1067.27 252.40 1062.76 252.41 1058.25 252.39 C 1041.16 226.21 1024.08 200.02 1006.96 173.86 C 1006.93 200.04 1006.96 226.22 1006.94 252.40 C 1002.44 252.40 997.94 252.40 993.44 252.40 C 993.40 218.40 993.43 184.40 993.43 150.41 Z" />
<path fill="#000000" opacity="1.00" d=" M 1095.62 150.42 C 1116.68 150.37 1137.73 150.41 1158.79 150.40 C 1158.80 154.07 1158.80 157.73 1158.80 161.40 C 1142.23 161.42 1125.66 161.41 1109.10 161.41 C 1109.07 173.07 1109.09 184.73 1109.09 196.39 C 1123.34 196.41 1137.60 196.40 1151.85 196.40 C 1151.86 200.07 1151.86 203.74 1151.86 207.41 C 1137.60 207.42 1123.35 207.41 1109.10 207.41 C 1109.06 222.40 1109.10 237.40 1109.08 252.39 C 1104.59 252.41 1100.11 252.40 1095.63 252.39 C 1095.61 218.40 1095.63 184.41 1095.62 150.42 Z" />
<path fill="#000000" opacity="1.00" d=" M 1273.37 150.40 C 1285.24 150.42 1297.11 150.36 1308.99 150.43 C 1318.36 150.62 1328.41 152.87 1335.24 159.74 C 1342.33 166.87 1343.97 177.85 1342.29 187.42 C 1340.45 197.24 1332.61 204.95 1323.47 208.39 C 1331.53 223.04 1339.78 237.58 1347.69 252.31 C 1342.77 252.49 1337.86 252.37 1332.95 252.39 C 1325.54 238.68 1318.21 224.92 1310.80 211.21 C 1302.83 211.22 1294.86 211.20 1286.89 211.22 C 1286.87 224.94 1286.89 238.67 1286.88 252.39 C 1282.38 252.41 1277.88 252.40 1273.38 252.40 C 1273.34 218.40 1273.37 184.40 1273.37 150.40 M 1286.98 161.37 C 1286.76 174.31 1286.94 187.25 1286.89 200.19 C 1294.58 200.14 1302.28 200.33 1309.97 200.10 C 1317.54 199.85 1325.47 195.65 1328.16 188.24 C 1330.26 181.97 1329.78 174.48 1325.93 168.96 C 1322.10 163.66 1315.31 161.64 1309.05 161.46 C 1301.69 161.32 1294.33 161.49 1286.98 161.37 Z" />
<path fill="#000000" opacity="1.00" d=" M 1361.62 150.42 C 1367.40 150.37 1373.19 150.41 1378.98 150.40 C 1390.14 178.10 1401.19 205.86 1412.32 233.58 C 1423.45 205.87 1434.53 178.13 1445.65 150.41 C 1451.45 150.39 1457.27 150.40 1463.08 150.40 C 1463.12 184.40 1463.10 218.39 1463.09 252.39 C 1458.60 252.41 1454.12 252.40 1449.64 252.39 C 1449.63 239.25 1449.61 226.11 1449.65 212.98 C 1450.02 198.63 1450.51 184.28 1450.89 169.93 C 1439.70 197.41 1428.62 224.93 1417.42 252.41 C 1413.98 252.40 1410.56 252.40 1407.14 252.39 C 1396.00 224.99 1384.94 197.56 1373.77 170.17 C 1374.16 184.44 1374.69 198.70 1375.07 212.97 C 1375.10 226.11 1375.08 239.25 1375.08 252.39 C 1370.59 252.40 1366.11 252.40 1361.63 252.39 C 1361.61 218.40 1361.63 184.41 1361.62 150.42 Z" />
<path fill="#000000" opacity="1.00" d=" M 1517.12 150.39 C 1521.02 150.40 1524.92 150.40 1528.84 150.39 C 1541.88 184.38 1554.86 218.39 1567.85 252.39 C 1563.25 252.40 1558.65 252.40 1554.06 252.40 C 1550.79 243.54 1547.59 234.66 1544.31 225.81 C 1530.08 225.81 1515.86 225.82 1501.64 225.81 C 1498.39 234.65 1495.26 243.54 1492.02 252.39 C 1487.40 252.40 1482.78 252.40 1478.16 252.39 C 1491.14 218.39 1504.08 184.37 1517.12 150.39 M 1505.70 214.79 C 1517.23 214.81 1528.77 214.81 1540.32 214.79 C 1534.55 198.84 1528.71 182.92 1522.97 166.97 C 1517.25 182.92 1511.43 198.84 1505.70 214.79 Z" />
<path fill="#000000" opacity="1.00" d=" M 1564.23 150.40 C 1590.51 150.40 1616.79 150.40 1643.06 150.40 C 1643.07 154.07 1643.07 157.74 1643.07 161.40 C 1632.15 161.43 1621.23 161.40 1610.32 161.41 C 1610.30 191.74 1610.33 222.07 1610.31 252.39 C 1605.84 252.40 1601.38 252.41 1596.93 252.39 C 1596.90 222.06 1596.95 191.73 1596.91 161.41 C 1586.01 161.41 1575.11 161.43 1564.22 161.40 C 1564.21 157.73 1564.21 154.07 1564.23 150.40 Z" />
<path fill="#000000" opacity="1.00" d=" M 1659.03 150.39 C 1663.50 150.41 1667.98 150.38 1672.46 150.41 C 1672.46 184.41 1672.47 218.41 1672.46 252.41 C 1667.97 252.42 1663.49 252.41 1659.02 252.41 C 1659.02 218.40 1658.99 184.40 1659.03 150.39 Z" />
<path fill="#000000" opacity="1.00" d=" M 1795.62 150.42 C 1800.14 150.40 1804.67 150.36 1809.21 150.44 C 1826.31 176.75 1843.46 203.03 1860.61 229.30 C 1860.62 203.01 1860.61 176.71 1860.61 150.42 C 1865.06 150.38 1869.51 150.41 1873.97 150.39 C 1874.00 184.40 1873.98 218.40 1873.98 252.40 C 1869.44 252.39 1864.91 252.45 1860.38 252.35 C 1843.37 226.15 1826.24 200.01 1809.16 173.85 C 1809.13 200.03 1809.16 226.21 1809.14 252.39 C 1804.63 252.41 1800.13 252.41 1795.63 252.39 C 1795.61 218.40 1795.63 184.41 1795.62 150.42 Z" />
<path fill="#000000" opacity="1.00" d=" M 554.73 324.77 C 562.26 321.21 570.85 320.46 579.06 321.32 C 588.45 322.36 597.82 326.74 603.53 334.46 C 607.29 339.45 609.26 345.65 609.31 351.88 C 604.82 351.89 600.32 351.88 595.83 351.89 C 595.90 345.02 592.61 337.92 586.26 334.79 C 578.56 331.08 569.12 331.07 561.25 334.27 C 553.88 337.21 550.17 346.44 553.27 353.70 C 555.73 359.19 561.52 361.97 566.81 364.09 C 578.43 368.33 591.41 370.43 600.97 378.91 C 611.79 387.95 612.53 406.54 602.24 416.24 C 595.85 422.48 586.83 425.17 578.10 425.68 C 566.42 426.52 554.04 423.64 545.01 415.92 C 538.89 410.74 535.33 402.87 535.34 394.86 C 539.83 394.84 544.33 394.85 548.82 394.85 C 548.99 399.65 550.48 404.59 554.07 407.96 C 560.34 414.10 569.73 415.35 578.12 414.61 C 584.06 414.13 590.45 411.93 593.79 406.68 C 597.60 400.42 596.52 391.01 590.26 386.70 C 582.57 381.43 573.21 379.74 564.57 376.66 C 557.00 373.87 549.27 370.34 543.96 364.06 C 538.40 357.54 537.28 348.01 540.07 340.06 C 542.53 333.18 548.24 327.88 554.73 324.77 Z" />
<path fill="#000000" opacity="1.00" d=" M 723.34 327.33 C 732.61 321.12 744.44 319.85 755.23 321.86 C 762.79 323.28 769.92 327.21 774.80 333.21 C 779.96 339.35 782.42 347.29 783.26 355.17 C 778.75 355.18 774.25 355.18 769.75 355.17 C 768.66 348.70 766.86 341.79 761.82 337.22 C 755.81 331.93 747.07 331.22 739.51 332.63 C 731.43 334.18 724.93 340.45 721.87 347.91 C 717.50 358.03 718.27 369.27 718.28 380.02 C 718.44 389.55 720.46 399.62 726.81 407.05 C 730.99 412.08 737.51 414.80 744.00 414.79 C 750.63 414.88 757.94 413.65 762.80 408.74 C 767.11 404.26 768.66 397.98 769.75 392.05 C 774.25 392.05 778.75 392.04 783.26 392.06 C 782.20 401.21 778.70 410.48 771.65 416.70 C 763.16 424.45 751.00 426.58 739.87 425.57 C 730.88 424.80 722.24 420.53 716.33 413.68 C 708.14 404.56 704.92 392.04 704.75 380.01 C 704.78 371.31 704.22 362.47 706.23 353.92 C 708.51 343.43 714.18 333.27 723.34 327.33 Z" />
<path fill="#000000" opacity="1.00" d=" M 1250.60 321.73 C 1261.84 319.84 1274.23 321.34 1283.57 328.31 C 1291.00 333.70 1295.49 342.70 1295.55 351.86 C 1291.04 351.91 1286.53 351.89 1282.04 351.88 C 1282.18 344.39 1278.05 336.75 1270.85 334.03 C 1262.94 331.10 1253.55 331.09 1245.99 335.03 C 1238.21 339.01 1235.72 350.69 1241.74 357.20 C 1246.02 361.78 1252.17 363.89 1257.98 365.83 C 1268.38 368.94 1279.45 371.85 1287.67 379.37 C 1298.07 388.56 1298.55 406.81 1288.35 416.33 C 1281.89 422.58 1272.80 425.23 1264.01 425.69 C 1252.39 426.48 1240.08 423.55 1231.11 415.85 C 1225.05 410.66 1221.53 402.83 1221.54 394.86 C 1226.03 394.84 1230.52 394.84 1235.02 394.86 C 1235.17 399.83 1236.83 404.95 1240.65 408.33 C 1247.14 414.34 1256.62 415.40 1265.08 414.53 C 1270.71 413.96 1276.70 411.75 1279.91 406.80 C 1284.01 400.30 1282.60 390.33 1275.77 386.21 C 1263.50 378.69 1248.16 378.12 1236.35 369.62 C 1231.57 366.39 1227.55 361.78 1225.88 356.19 C 1223.65 348.66 1224.86 340.00 1229.72 333.73 C 1234.73 327.14 1242.52 323.08 1250.60 321.73 Z" />
<path fill="#000000" opacity="1.00" d=" M 1621.43 331.40 C 1633.16 320.06 1651.94 318.23 1666.60 324.47 C 1678.61 329.69 1685.50 342.51 1686.46 355.17 C 1681.95 355.18 1677.44 355.18 1672.95 355.17 C 1671.83 348.44 1669.88 341.19 1664.39 336.68 C 1658.29 331.83 1649.80 331.25 1642.41 332.70 C 1634.43 334.34 1628.06 340.59 1625.04 347.99 C 1620.83 357.74 1621.45 368.57 1621.46 378.95 C 1621.50 388.59 1623.33 398.81 1629.54 406.49 C 1633.45 411.47 1639.59 414.47 1645.90 414.73 C 1652.66 415.03 1660.12 414.04 1665.36 409.36 C 1670.13 404.90 1671.81 398.27 1672.94 392.06 C 1677.44 392.04 1681.95 392.04 1686.46 392.06 C 1685.50 399.85 1682.97 407.70 1677.76 413.72 C 1672.56 419.89 1664.97 423.72 1657.08 425.03 C 1647.58 426.62 1637.31 426.02 1628.78 421.20 C 1619.10 415.76 1612.58 405.78 1609.92 395.15 C 1607.36 385.66 1607.95 375.74 1607.97 366.01 C 1608.26 353.44 1612.18 340.32 1621.43 331.40 Z" />
<path fill="#000000" opacity="1.00" d=" M 1788.40 333.36 C 1793.61 326.75 1801.64 322.78 1809.89 321.58 C 1820.81 319.94 1832.73 321.50 1841.80 328.18 C 1849.32 333.57 1853.89 342.63 1853.96 351.86 C 1849.44 351.91 1844.93 351.88 1840.43 351.89 C 1840.57 344.60 1836.70 337.13 1829.78 334.26 C 1821.90 331.07 1812.45 331.08 1804.77 334.82 C 1797.04 338.52 1794.17 349.67 1799.52 356.46 C 1803.66 361.52 1810.14 363.70 1816.13 365.76 C 1826.53 368.88 1837.59 371.74 1845.87 379.18 C 1856.53 388.38 1857.02 406.99 1846.56 416.52 C 1840.00 422.73 1830.84 425.30 1822.01 425.72 C 1810.44 426.42 1798.20 423.43 1789.34 415.69 C 1783.37 410.51 1779.94 402.74 1779.94 394.86 C 1784.43 394.84 1788.92 394.84 1793.43 394.86 C 1793.57 399.99 1795.36 405.27 1799.40 408.65 C 1806.07 414.52 1815.61 415.43 1824.10 414.46 C 1829.91 413.78 1836.07 411.19 1838.92 405.77 C 1841.99 399.64 1840.89 391.06 1835.11 386.88 C 1829.14 382.67 1821.97 380.69 1815.07 378.58 C 1805.94 375.76 1796.50 372.28 1789.68 365.32 C 1781.42 356.94 1781.11 342.44 1788.40 333.36 Z" />
<path fill="#000000" opacity="1.00" d=" M 626.62 322.42 C 647.98 322.38 669.34 322.41 690.71 322.40 C 690.72 326.05 690.69 329.70 690.75 333.35 C 673.87 333.49 656.98 333.38 640.10 333.41 C 640.07 344.34 640.09 355.26 640.09 366.20 C 654.81 366.21 669.53 366.19 684.26 366.20 C 684.27 369.87 684.27 373.53 684.25 377.20 C 669.53 377.22 654.81 377.20 640.09 377.21 C 640.08 389.27 640.09 401.33 640.09 413.39 C 657.20 413.42 674.30 413.37 691.41 413.42 C 691.41 417.08 691.41 420.74 691.40 424.40 C 669.81 424.42 648.22 424.42 626.63 424.40 C 626.61 390.41 626.63 356.41 626.62 322.42 Z" />
<path fill="#000000" opacity="1.00" d=" M 799.40 322.40 C 803.83 322.39 808.27 322.40 812.71 322.40 C 812.75 345.93 812.65 369.46 812.75 392.98 C 812.78 400.69 816.52 408.80 823.74 412.22 C 831.16 415.64 840.12 415.64 847.70 412.69 C 855.48 409.60 859.65 401.10 859.64 393.05 C 859.75 369.51 859.65 345.96 859.69 322.42 C 864.19 322.39 868.70 322.38 873.22 322.42 C 873.20 345.61 873.23 368.80 873.20 391.99 C 873.25 400.48 870.33 409.16 864.27 415.24 C 857.77 422.07 848.30 425.25 839.06 425.70 C 828.33 426.38 816.73 423.89 808.83 416.16 C 802.27 410.01 799.36 400.85 799.41 392.03 C 799.39 368.82 799.40 345.61 799.40 322.40 Z" />
<path fill="#000000" opacity="1.00" d=" M 894.37 322.40 C 906.25 322.42 918.14 322.36 930.03 322.43 C 939.40 322.63 949.44 324.88 956.25 331.75 C 963.35 338.90 964.98 349.89 963.28 359.47 C 961.43 369.26 953.59 376.96 944.47 380.38 C 952.52 395.04 960.78 409.58 968.69 424.31 C 963.78 424.48 958.86 424.37 953.95 424.40 C 946.54 410.68 939.21 396.93 931.81 383.21 C 923.84 383.21 915.87 383.21 907.90 383.22 C 907.86 396.94 907.90 410.67 907.88 424.40 C 903.38 424.40 898.88 424.40 894.38 424.42 C 894.34 390.41 894.37 356.41 894.37 322.40 M 908.00 333.37 C 907.74 346.30 907.95 359.25 907.90 372.19 C 914.92 372.19 921.94 372.22 928.97 372.19 C 934.84 372.18 941.03 370.51 945.27 366.23 C 951.17 360.46 951.62 350.88 948.49 343.62 C 945.50 336.88 937.89 333.76 930.91 333.50 C 923.27 333.27 915.63 333.52 908.00 333.37 Z" />
<path fill="#000000" opacity="1.00" d=" M 983.61 322.42 C 988.09 322.38 992.57 322.40 997.05 322.40 C 997.07 356.40 997.07 390.40 997.05 424.39 C 992.57 424.40 988.09 424.40 983.62 424.39 C 983.60 390.40 983.62 356.41 983.61 322.42 Z" />
<path fill="#000000" opacity="1.00" d=" M 1011.23 322.40 C 1037.51 322.40 1063.78 322.40 1090.06 322.40 C 1090.08 326.07 1090.07 329.73 1090.07 333.40 C 1079.15 333.43 1068.23 333.40 1057.32 333.41 C 1057.30 363.74 1057.33 394.07 1057.31 424.39 C 1052.84 424.40 1048.39 424.40 1043.93 424.39 C 1043.91 394.06 1043.95 363.74 1043.91 333.41 C 1033.01 333.41 1022.12 333.42 1011.22 333.40 C 1011.21 329.73 1011.21 326.07 1011.23 322.40 Z" />
<path fill="#000000" opacity="1.00" d=" M 1095.46 322.40 C 1100.57 322.39 1105.70 322.41 1110.82 322.39 C 1119.72 339.42 1128.44 356.54 1137.34 373.57 C 1146.12 356.54 1155.09 339.60 1163.77 322.52 C 1168.90 322.25 1174.04 322.46 1179.18 322.41 C 1168.23 342.39 1157.25 362.35 1146.26 382.31 C 1145.37 384.11 1143.87 385.80 1144.05 387.94 C 1144.04 400.09 1144.06 412.24 1144.04 424.39 C 1139.56 424.40 1135.08 424.40 1130.61 424.39 C 1130.50 411.73 1130.77 399.05 1130.48 386.39 C 1119.01 364.96 1107.07 343.76 1095.46 322.40 Z" />
<path fill="#000000" opacity="1.00" d=" M 1312.75 322.53 C 1334.12 322.22 1355.52 322.50 1376.90 322.39 C 1376.91 326.06 1376.91 329.73 1376.91 333.41 C 1360.04 333.42 1343.16 333.40 1326.29 333.41 C 1326.27 344.34 1326.29 355.26 1326.29 366.18 C 1341.01 366.22 1355.73 366.19 1370.45 366.20 C 1370.46 369.87 1370.46 373.53 1370.45 377.21 C 1355.73 377.22 1341.01 377.20 1326.29 377.22 C 1326.29 389.28 1326.26 401.34 1326.31 413.41 C 1343.40 413.39 1360.50 413.40 1377.61 413.40 C 1377.61 417.07 1377.62 420.73 1377.59 424.40 C 1356.00 424.38 1334.42 424.43 1312.83 424.40 C 1312.76 390.45 1312.93 356.49 1312.75 322.53 Z" />
<path fill="#000000" opacity="1.00" d=" M 1394.17 322.40 C 1406.11 322.42 1418.05 322.35 1429.99 322.43 C 1439.11 322.65 1448.84 324.81 1455.62 331.33 C 1463.35 338.76 1465.04 350.66 1462.78 360.76 C 1460.57 370.10 1452.85 376.98 1444.24 380.53 C 1452.45 395.05 1460.58 409.63 1468.47 424.33 C 1463.56 424.47 1458.65 424.37 1453.75 424.40 C 1446.36 410.69 1439.00 396.95 1431.63 383.22 C 1423.65 383.20 1415.67 383.21 1407.69 383.22 C 1407.66 396.95 1407.72 410.67 1407.67 424.40 C 1403.16 424.39 1398.66 424.41 1394.17 424.39 C 1394.16 390.39 1394.15 356.40 1394.17 322.40 M 1407.69 333.43 C 1407.69 346.35 1407.67 359.27 1407.69 372.19 C 1412.12 372.21 1416.55 372.20 1420.99 372.20 C 1428.45 372.25 1436.73 372.78 1443.02 367.99 C 1451.01 362.37 1452.04 350.55 1447.65 342.39 C 1444.18 336.18 1436.75 333.64 1430.00 333.46 C 1422.56 333.34 1415.12 333.43 1407.69 333.43 Z" />
<path fill="#000000" opacity="1.00" d=" M 1471.36 322.40 C 1476.22 322.39 1481.08 322.41 1485.95 322.39 C 1495.72 350.34 1505.20 378.39 1514.97 406.35 C 1524.82 378.41 1534.34 350.35 1544.13 322.39 C 1549.02 322.41 1553.91 322.39 1558.81 322.40 C 1546.23 356.41 1533.62 390.40 1521.00 424.39 C 1517.03 424.40 1513.06 424.40 1509.10 424.40 C 1496.51 390.40 1483.93 356.41 1471.36 322.40 Z" />
<path fill="#000000" opacity="1.00" d=" M 1573.42 322.41 C 1577.89 322.39 1582.36 322.40 1586.85 322.40 C 1586.88 356.40 1586.86 390.40 1586.86 424.41 C 1582.38 424.42 1577.90 424.41 1573.43 424.41 C 1573.39 390.41 1573.42 356.41 1573.42 322.41 Z" />
<path fill="#000000" opacity="1.00" d=" M 1704.62 322.42 C 1725.98 322.38 1747.34 322.41 1768.71 322.40 C 1768.71 326.07 1768.72 329.74 1768.69 333.42 C 1751.83 333.40 1734.96 333.42 1718.10 333.41 C 1718.07 344.34 1718.08 355.26 1718.09 366.20 C 1732.81 366.21 1747.53 366.19 1762.26 366.21 C 1762.26 369.87 1762.26 373.53 1762.25 377.20 C 1747.53 377.22 1732.81 377.20 1718.09 377.21 C 1718.08 389.27 1718.08 401.33 1718.09 413.39 C 1735.20 413.42 1752.30 413.37 1769.41 413.42 C 1769.40 417.08 1769.41 420.74 1769.40 424.40 C 1747.81 424.42 1726.22 424.42 1704.63 424.40 C 1704.61 390.41 1704.63 356.41 1704.62 322.42 Z" />
</g>
</svg>
