<svg width="580" height="730" viewBox="0 0 58 73" fill="none" xmlns="http://www.w3.org/2000/svg">
<path d="M35.5388 56.4538L38.9441 49.989L49.5686 38.696C49.8094 38.4401 49.8982 38.0765 49.8025 37.7384L45.4877 22.4993L48.5146 13.4727C48.6498 13.0696 48.2522 12.6924 47.8568 12.8487L38.0095 16.7415L36.5436 16.4167L33.0273 16.0022H31.064L29.0304 15.863L23.4368 16.0724L22.0034 16.2088L19.7083 16.6683L10.0061 12.7869C9.6113 12.629 9.21205 13.0047 9.34578 13.4084L12.382 22.5738L7.93138 37.9487C7.8328 38.2893 7.92189 38.6566 8.16555 38.9141L18.6374 49.982L22.2479 56.5128L28.5479 59.8437C28.8478 60.0023 29.2077 59.998 29.5038 59.8323L35.5388 56.4538Z" stroke="#858585" stroke-width="1.52908" stroke-linecap="round"/>
<path d="M52.7608 55.2184C52.8112 55.1838 52.8431 55.128 52.8472 55.067L55.9886 8.61298C55.9952 8.51544 55.9303 8.42742 55.8351 8.40488L28.8527 2.01054C28.8235 2.0036 28.793 2.00336 28.7636 2.00984L1.80393 7.95015C1.70746 7.97141 1.64095 8.05992 1.64739 8.1585L4.6923 54.7877C4.69627 54.8485 4.72775 54.9042 4.7778 54.939L28.7104 71.5562C28.7786 71.6036 28.869 71.6039 28.9375 71.5569L52.7608 55.2184Z" stroke="url(#paint0_linear)" stroke-width="2.42853" stroke-linecap="round"/>
<defs>
<linearGradient id="paint0_linear" x1="35.4458" y1="52.0547" x2="12.3772" y2="22.2326" gradientUnits="userSpaceOnUse">
<stop stop-color="#24BBC3"/>
<stop offset="1" stop-color="#22A5FB"/>
</linearGradient>
</defs>
</svg>
