<?xml version="1.0" encoding="UTF-8" ?>
<!DOCTYPE svg PUBLIC "-//W3C//DTD SVG 1.1//EN" "http://www.w3.org/Graphics/SVG/1.1/DTD/svg11.dtd">
<svg width="1901pt" height="609pt" viewBox="0 0 1901 609" version="1.1" xmlns="http://www.w3.org/2000/svg">
<g id="#22a5fbff">
<path fill="#22a5fb" opacity="1.00" d=" M 246.59 5.37 C 249.84 4.63 253.23 3.65 256.55 4.62 C 287.48 11.97 318.42 19.27 349.34 26.62 C 342.90 32.24 335.73 36.98 329.35 42.68 C 303.94 36.78 278.60 30.44 253.14 24.79 C 181.22 40.34 109.40 56.42 37.52 72.16 C 42.01 141.35 46.56 210.55 51.06 279.75 C 44.19 283.95 38.35 289.58 31.72 294.13 C 26.75 218.09 21.76 142.06 16.83 66.01 C 16.41 60.48 20.53 55.08 25.96 53.99 C 99.49 37.74 173.05 21.59 246.59 5.37 Z" />
</g>
<g id="#22a9f2ff">
<path fill="#22a9f2" opacity="1.00" d=" M 349.34 26.62 C 377.33 33.23 405.32 39.86 433.31 46.52 C 430.73 50.58 426.38 52.81 422.72 55.72 C 419.72 58.06 416.78 60.46 413.69 62.67 C 385.58 55.99 357.46 49.36 329.35 42.68 C 335.73 36.98 342.90 32.24 349.34 26.62 Z" />
</g>
<g id="#23aee3ff">
<path fill="#23aee3" opacity="1.00" d=" M 433.31 46.52 C 449.26 50.26 465.20 54.04 481.14 57.85 C 486.54 59.10 490.47 64.60 489.92 70.12 C 488.67 89.01 487.37 107.90 486.09 126.80 C 478.78 132.00 471.97 137.87 464.70 143.13 C 466.22 120.70 467.73 98.27 469.25 75.84 C 450.73 71.43 432.21 67.06 413.69 62.67 C 416.78 60.46 419.72 58.06 422.72 55.72 C 426.38 52.81 430.73 50.58 433.31 46.52 Z" />
</g>
<g id="#858585ff">
<path fill="#858585" opacity="1.00" d=" M 84.96 110.98 C 82.99 105.26 87.15 98.58 93.07 97.63 C 96.89 96.79 100.41 98.87 103.86 100.16 C 128.62 109.99 153.29 120.08 178.10 129.75 C 185.47 128.66 192.65 126.44 200.11 125.90 C 216.34 124.37 232.68 124.43 248.97 123.61 C 258.32 122.89 267.62 124.76 276.98 124.56 C 282.35 124.64 287.76 124.23 293.10 125.04 C 305.18 126.64 317.42 127.34 329.27 130.34 C 356.42 120.04 383.31 108.98 410.40 98.49 C 417.83 95.65 426.21 103.51 423.79 111.11 C 415.63 135.84 407.25 160.50 399.00 185.20 C 410.28 225.12 421.61 265.04 432.91 304.96 C 433.78 308.29 435.17 311.59 434.94 315.10 C 434.79 318.67 433.20 322.09 430.73 324.64 C 404.53 352.47 378.33 380.31 352.13 408.15 C 349.03 411.68 345.42 414.79 342.65 418.58 C 333.85 435.18 325.12 451.82 316.36 468.44 C 315.30 470.25 314.69 472.62 312.57 473.50 C 295.66 482.90 278.81 492.43 261.90 501.81 C 257.25 504.40 251.39 503.93 246.92 501.20 C 229.31 491.74 211.46 482.67 193.97 473.03 C 184.78 456.84 175.92 440.44 166.85 424.18 C 165.37 421.67 164.28 418.90 162.30 416.72 C 133.78 386.60 105.26 356.46 76.74 326.33 C 73.09 322.61 71.66 316.91 73.21 311.92 C 85.30 269.89 97.64 227.92 109.62 185.86 C 101.62 160.84 93.08 135.97 84.96 110.98 M 98.67 111.85 C 106.49 135.49 114.30 159.14 122.18 182.76 C 122.52 184.06 123.27 185.43 122.72 186.78 C 110.33 229.58 97.92 272.38 85.55 315.18 C 85.56 315.63 85.57 316.51 85.58 316.95 C 114.77 348.24 144.51 379.05 173.69 410.34 C 183.47 427.60 192.93 445.06 202.57 462.41 C 203.01 463.33 203.70 464.00 204.64 464.41 C 221.01 473.02 237.34 481.71 253.72 490.32 C 255.00 491.42 256.37 490.22 257.59 489.64 C 273.17 480.83 288.87 472.23 304.41 463.36 C 313.83 446.33 322.63 428.91 331.79 411.72 C 333.15 409.21 335.43 407.39 337.30 405.28 C 365.25 375.59 393.18 345.89 421.13 316.21 C 422.18 315.34 422.44 314.26 421.91 312.97 C 409.84 270.28 397.72 227.59 385.64 184.90 C 393.74 160.71 401.88 136.53 409.97 112.34 C 383.57 122.73 357.22 133.25 330.79 143.58 C 325.19 142.95 319.80 140.96 314.18 140.36 C 305.81 139.42 297.47 138.36 289.10 137.44 C 282.08 137.02 275.03 137.63 268.01 137.04 C 262.37 136.74 256.73 135.96 251.06 136.28 C 236.74 136.89 222.40 137.27 208.08 137.96 C 198.51 138.41 189.18 140.63 179.83 142.52 C 178.36 142.79 176.79 143.30 175.39 142.52 C 149.82 132.28 124.25 122.06 98.67 111.85 Z" />
</g>
<g id="#23b3d7ff">
<path fill="#23b3d7" opacity="1.00" d=" M 464.70 143.13 C 471.97 137.87 478.78 132.00 486.09 126.80 C 484.92 144.45 483.71 162.11 482.51 179.77 C 474.95 184.26 468.85 190.79 461.19 195.12 C 462.35 177.79 463.52 160.46 464.70 143.13 Z" />
</g>
<g id="#1abc9cff">
<path fill="#1abc9c" opacity="1.00" d=" M 543.56 159.57 C 549.10 153.09 557.52 149.64 565.93 149.14 C 575.18 148.44 585.34 150.10 592.35 156.66 C 600.10 163.59 602.12 175.31 598.97 184.94 C 595.77 194.70 589.36 202.99 582.64 210.59 C 573.09 221.02 563.47 231.38 553.91 241.80 C 570.96 241.81 588.02 241.79 605.07 241.80 C 605.08 245.33 605.07 248.86 605.07 252.39 C 582.84 252.45 560.60 252.31 538.36 252.47 C 538.20 249.33 538.25 246.19 538.27 243.06 C 550.68 229.19 563.22 215.43 575.58 201.51 C 581.02 195.01 587.11 187.89 587.34 178.95 C 587.94 171.37 583.52 163.30 576.04 160.97 C 568.38 158.76 558.86 160.15 553.57 166.58 C 550.33 170.42 549.35 175.56 549.20 180.45 C 544.88 180.45 540.57 180.46 536.26 180.44 C 536.28 172.94 538.45 165.23 543.56 159.57 Z" />
<path fill="#1abc9c" opacity="1.00" d=" M 614.59 150.55 C 619.08 150.23 623.59 150.48 628.10 150.39 C 633.31 172.76 638.41 195.16 643.61 217.53 C 644.81 222.67 645.19 227.96 646.18 233.13 C 653.21 205.39 661.56 177.97 669.23 150.39 C 673.00 150.40 676.78 150.40 680.56 150.40 C 688.06 177.96 696.09 205.42 703.10 233.09 C 705.06 219.05 708.65 205.33 711.70 191.51 C 714.83 177.80 717.87 164.08 721.06 150.39 C 725.55 150.41 730.05 150.39 734.55 150.40 C 726.32 184.40 718.06 218.39 709.85 252.39 C 705.76 252.41 701.67 252.39 697.59 252.41 C 690.73 228.32 683.97 204.21 677.13 180.12 C 676.21 177.09 675.90 173.91 674.90 170.90 C 673.34 179.10 670.67 187.00 668.39 195.01 C 662.84 214.12 657.12 233.18 651.67 252.32 C 647.55 252.47 643.42 252.38 639.30 252.39 C 631.04 218.45 623.03 184.44 614.59 150.55 Z" />
<path fill="#1abc9c" opacity="1.00" d=" M 775.29 150.40 C 779.19 150.39 783.09 150.42 787.00 150.37 C 800.10 184.35 813.04 218.39 826.05 252.40 C 821.44 252.39 816.84 252.41 812.24 252.39 C 808.93 243.51 805.88 234.53 802.37 225.74 C 788.19 225.91 774.01 225.76 759.83 225.82 C 756.61 234.67 753.44 243.54 750.22 252.40 C 745.60 252.40 740.98 252.40 736.36 252.39 C 749.33 218.39 762.30 184.39 775.29 150.40 M 763.90 214.80 C 775.44 214.78 786.99 214.85 798.53 214.76 C 792.73 198.88 786.96 182.98 781.20 167.08 C 775.35 182.96 769.66 198.89 763.90 214.80 Z" />
<path fill="#1abc9c" opacity="1.00" d=" M 839.75 150.53 C 860.81 150.21 881.89 150.52 902.95 150.37 C 903.02 154.05 902.99 157.73 903.00 161.41 C 886.43 161.42 869.86 161.41 853.29 161.41 C 853.34 173.09 853.17 184.78 853.37 196.46 C 867.58 196.31 881.79 196.46 896.01 196.38 C 896.10 200.05 896.05 203.73 896.06 207.41 C 881.80 207.42 867.55 207.41 853.29 207.41 C 853.27 222.40 853.30 237.40 853.28 252.39 C 848.79 252.40 844.31 252.40 839.83 252.39 C 839.77 218.44 839.93 184.48 839.75 150.53 Z" />
</g>
<g id="#ffffffff">
<path fill="#ffffff" opacity="1.00" d=" M 1204.47 149.66 C 1215.68 147.71 1227.97 149.88 1236.96 157.14 C 1245.68 164.06 1250.43 174.84 1252.25 185.60 C 1253.59 193.65 1253.35 201.85 1253.10 209.97 C 1252.34 222.79 1248.00 236.21 1238.06 244.85 C 1222.58 258.13 1196.35 256.66 1182.99 241.01 C 1173.74 230.37 1170.84 215.73 1171.26 201.98 C 1170.89 189.74 1172.77 176.97 1179.48 166.49 C 1184.93 157.67 1194.24 151.40 1204.47 149.66 M 1204.40 161.67 C 1196.54 163.85 1190.76 170.59 1187.95 178.02 C 1184.19 187.53 1184.55 197.95 1184.71 207.99 C 1185.05 217.36 1187.20 227.22 1193.47 234.51 C 1203.03 246.03 1223.49 245.60 1232.37 233.46 C 1237.84 226.21 1239.47 216.89 1239.82 208.02 C 1239.92 199.06 1240.28 189.92 1237.78 181.21 C 1235.99 174.84 1232.51 168.71 1227.00 164.87 C 1220.50 160.36 1211.90 159.63 1204.40 161.67 Z" />
<path fill="#ffffff" opacity="1.00" d=" M 1726.56 149.68 C 1737.03 147.86 1748.41 149.54 1757.23 155.71 C 1765.42 161.29 1770.62 170.35 1773.16 179.77 C 1775.67 188.60 1775.57 197.86 1775.43 206.95 C 1775.16 218.82 1772.15 231.13 1764.52 240.48 C 1754.61 252.90 1736.69 256.51 1721.93 251.95 C 1712.88 249.16 1705.15 242.69 1700.54 234.46 C 1694.69 224.38 1693.12 212.47 1693.46 200.99 C 1693.16 189.33 1695.08 177.24 1701.25 167.16 C 1706.65 158.04 1716.11 151.48 1726.56 149.68 M 1726.46 161.71 C 1718.84 163.89 1713.19 170.35 1710.35 177.54 C 1706.37 187.18 1706.74 197.81 1706.91 208.03 C 1707.26 217.38 1709.40 227.20 1715.64 234.47 C 1725.19 246.03 1745.68 245.62 1754.57 233.46 C 1760.04 226.21 1761.67 216.87 1762.02 207.99 C 1762.11 199.25 1762.47 190.33 1760.14 181.80 C 1758.45 175.42 1755.10 169.23 1749.72 165.25 C 1743.13 160.38 1734.19 159.57 1726.46 161.71 Z" />
<path fill="#ffffff" opacity="1.00" d=" M 955.41 150.40 C 959.89 150.40 964.37 150.40 968.86 150.40 C 968.87 184.40 968.86 218.40 968.86 252.40 C 964.38 252.40 959.90 252.39 955.42 252.40 C 955.40 218.40 955.42 184.40 955.41 150.40 Z" />
<path fill="#ffffff" opacity="1.00" d=" M 993.42 150.40 C 997.90 150.38 1002.38 150.44 1006.86 150.36 C 1024.15 176.60 1041.16 203.01 1058.40 229.27 C 1058.42 202.98 1058.40 176.69 1058.42 150.40 C 1062.87 150.40 1067.32 150.40 1071.78 150.40 C 1071.79 184.40 1071.78 218.39 1071.79 252.39 C 1067.27 252.40 1062.75 252.41 1058.23 252.38 C 1041.17 226.22 1024.11 200.05 1006.99 173.92 C 1006.89 200.08 1006.98 226.24 1006.95 252.40 C 1002.44 252.40 997.93 252.40 993.43 252.40 C 993.41 218.40 993.43 184.40 993.42 150.40 Z" />
<path fill="#ffffff" opacity="1.00" d=" M 1095.62 150.41 C 1116.68 150.39 1137.74 150.41 1158.79 150.40 C 1158.80 154.07 1158.79 157.74 1158.80 161.41 C 1142.23 161.42 1125.66 161.41 1109.09 161.41 C 1109.07 173.07 1109.09 184.73 1109.09 196.40 C 1123.34 196.40 1137.60 196.40 1151.85 196.39 C 1151.86 200.07 1151.85 203.74 1151.86 207.41 C 1137.61 207.41 1123.35 207.42 1109.10 207.41 C 1109.07 222.40 1109.09 237.40 1109.08 252.40 C 1104.59 252.40 1100.11 252.40 1095.63 252.40 C 1095.62 218.40 1095.63 184.40 1095.62 150.41 Z" />
<path fill="#ffffff" opacity="1.00" d=" M 1273.36 150.40 C 1285.25 150.42 1297.14 150.36 1309.03 150.43 C 1318.39 150.63 1328.41 152.88 1335.22 159.73 C 1342.35 166.88 1343.98 177.90 1342.27 187.50 C 1340.41 197.27 1332.59 204.98 1323.46 208.37 C 1331.50 223.04 1339.82 237.55 1347.66 252.33 C 1342.75 252.47 1337.84 252.37 1332.94 252.40 C 1325.56 238.67 1318.20 224.93 1310.81 211.21 C 1302.84 211.21 1294.86 211.21 1286.90 211.21 C 1286.87 224.94 1286.89 238.67 1286.89 252.40 C 1282.38 252.40 1277.87 252.39 1273.37 252.40 C 1273.35 218.40 1273.37 184.40 1273.36 150.40 M 1286.98 161.36 C 1286.76 174.30 1286.94 187.25 1286.89 200.20 C 1290.94 200.20 1294.99 200.20 1299.06 200.20 C 1306.79 200.16 1315.39 201.03 1322.00 196.15 C 1330.00 190.73 1331.21 179.15 1327.16 170.95 C 1324.08 164.83 1317.08 161.94 1310.56 161.54 C 1302.70 161.21 1294.83 161.56 1286.98 161.36 Z" />
<path fill="#ffffff" opacity="1.00" d=" M 1361.62 150.41 C 1367.41 150.39 1373.19 150.41 1378.99 150.40 C 1390.16 178.09 1401.13 205.88 1412.37 233.55 C 1423.42 205.82 1434.56 178.13 1445.64 150.41 C 1451.45 150.39 1457.27 150.40 1463.09 150.40 C 1463.11 184.40 1463.10 218.40 1463.10 252.40 C 1458.60 252.40 1454.12 252.40 1449.64 252.40 C 1449.63 239.60 1449.63 226.80 1449.64 214.01 C 1449.93 199.30 1450.61 184.60 1450.81 169.89 C 1439.81 197.44 1428.55 224.90 1417.44 252.40 C 1413.99 252.40 1410.56 252.40 1407.13 252.39 C 1396.29 225.62 1385.42 198.85 1374.58 172.08 C 1374.22 171.35 1373.96 170.21 1372.94 170.51 L 1373.80 171.64 C 1374.22 185.44 1374.69 199.24 1375.07 213.05 C 1375.10 226.16 1375.08 239.28 1375.08 252.40 C 1370.59 252.40 1366.11 252.40 1361.63 252.40 C 1361.62 218.40 1361.63 184.40 1361.62 150.41 Z" />
<path fill="#ffffff" opacity="1.00" d=" M 1517.12 150.39 C 1521.02 150.41 1524.93 150.40 1528.86 150.40 C 1541.87 184.39 1554.86 218.40 1567.86 252.40 C 1563.25 252.40 1558.65 252.40 1554.05 252.40 C 1550.80 243.53 1547.58 234.66 1544.31 225.81 C 1530.09 225.81 1515.87 225.83 1501.65 225.80 C 1498.40 234.64 1495.24 243.52 1492.04 252.39 C 1487.41 252.41 1482.78 252.39 1478.16 252.40 C 1491.14 218.40 1504.08 184.37 1517.12 150.39 M 1505.69 214.80 C 1517.23 214.80 1528.78 214.80 1540.32 214.80 C 1534.58 198.87 1528.69 182.99 1523.03 167.03 C 1517.14 182.91 1511.48 198.88 1505.69 214.80 Z" />
<path fill="#ffffff" opacity="1.00" d=" M 1564.23 150.40 C 1590.47 150.37 1616.72 150.46 1642.97 150.35 C 1643.16 154.03 1643.03 157.72 1643.07 161.41 C 1632.15 161.41 1621.23 161.41 1610.32 161.41 C 1610.31 191.74 1610.32 222.07 1610.31 252.40 C 1605.84 252.40 1601.38 252.40 1596.93 252.40 C 1596.91 222.07 1596.94 191.74 1596.91 161.40 C 1586.01 161.42 1575.11 161.42 1564.22 161.40 C 1564.22 157.73 1564.21 154.07 1564.23 150.40 Z" />
<path fill="#ffffff" opacity="1.00" d=" M 1659.03 150.39 C 1663.50 150.41 1667.98 150.40 1672.46 150.40 C 1672.46 184.40 1672.46 218.41 1672.46 252.41 C 1667.97 252.41 1663.49 252.41 1659.01 252.41 C 1659.02 218.40 1658.99 184.40 1659.03 150.39 Z" />
<path fill="#ffffff" opacity="1.00" d=" M 1795.62 150.41 C 1800.17 150.42 1804.72 150.32 1809.28 150.47 C 1826.29 176.80 1843.46 203.04 1860.62 229.28 C 1860.60 202.99 1860.62 176.70 1860.61 150.41 C 1865.06 150.39 1869.51 150.41 1873.97 150.39 C 1874.01 184.39 1873.98 218.40 1873.99 252.40 C 1869.53 252.43 1865.07 252.32 1860.63 252.48 C 1843.31 226.38 1826.34 200.03 1809.16 173.83 C 1809.13 200.02 1809.16 226.21 1809.15 252.40 C 1804.63 252.40 1800.12 252.40 1795.63 252.40 C 1795.62 218.40 1795.63 184.41 1795.62 150.41 Z" />
<path fill="#ffffff" opacity="1.00" d=" M 564.54 321.70 C 574.15 320.16 584.47 320.95 593.15 325.64 C 602.81 330.56 609.50 341.00 609.27 351.93 C 604.78 351.84 600.29 351.90 595.81 351.89 C 596.06 344.21 591.61 336.45 584.20 333.84 C 576.27 331.10 566.91 331.12 559.45 335.22 C 551.64 339.48 549.53 351.59 556.11 357.81 C 562.08 363.36 570.29 365.35 577.88 367.65 C 586.95 370.44 596.41 373.85 603.05 380.96 C 609.30 387.53 610.81 397.54 608.44 406.08 C 606.19 414.03 599.38 419.92 591.86 422.81 C 583.83 425.87 574.98 426.37 566.51 425.27 C 556.89 423.79 547.16 419.59 541.07 411.74 C 537.27 406.98 535.41 400.90 535.34 394.85 C 539.84 394.84 544.34 394.85 548.84 394.85 C 548.93 399.89 550.69 405.07 554.58 408.45 C 560.59 413.94 569.20 415.21 577.05 414.69 C 583.32 414.36 590.23 412.26 593.79 406.68 C 598.28 399.52 595.81 388.69 587.83 385.15 C 578.75 380.09 568.24 378.70 558.86 374.38 C 552.70 371.63 546.57 368.01 542.67 362.34 C 536.68 353.66 537.37 341.02 544.14 332.95 C 549.20 326.78 556.74 322.99 564.54 321.70 Z" />
<path fill="#ffffff" opacity="1.00" d=" M 712.49 338.44 C 718.18 329.22 728.15 322.92 738.87 321.49 C 750.12 319.94 762.64 321.80 771.34 329.63 C 778.70 336.02 782.33 345.66 783.26 355.17 C 778.75 355.18 774.24 355.18 769.74 355.17 C 768.65 348.49 766.71 341.27 761.28 336.76 C 755.27 331.89 746.86 331.27 739.51 332.63 C 731.45 334.18 724.95 340.43 721.88 347.89 C 717.49 358.01 718.28 369.28 718.28 380.05 C 718.44 389.58 720.48 399.66 726.83 407.08 C 731.00 412.07 737.48 414.78 743.93 414.78 C 750.79 414.90 758.43 413.57 763.26 408.25 C 767.32 403.81 768.51 397.72 769.88 392.09 C 774.33 391.97 778.80 392.09 783.26 392.06 C 782.18 401.45 778.50 410.96 771.11 417.17 C 762.17 424.93 749.54 426.78 738.12 425.37 C 728.05 424.11 718.87 418.16 713.26 409.76 C 705.81 399.11 704.32 385.67 704.72 373.02 C 704.32 361.12 705.92 348.65 712.49 338.44 Z" />
<path fill="#ffffff" opacity="1.00" d=" M 1250.54 321.74 C 1261.61 319.88 1273.76 321.27 1283.06 327.94 C 1290.76 333.30 1295.51 342.49 1295.54 351.87 C 1291.03 351.90 1286.52 351.88 1282.02 351.88 C 1282.21 344.41 1278.06 336.80 1270.91 334.05 C 1263.05 331.11 1253.73 331.10 1246.17 334.93 C 1238.49 338.74 1235.78 349.97 1241.28 356.66 C 1245.27 361.38 1251.34 363.54 1257.02 365.53 C 1267.72 368.80 1279.20 371.61 1287.68 379.37 C 1298.07 388.57 1298.55 406.80 1288.36 416.32 C 1281.90 422.57 1272.80 425.23 1264.00 425.69 C 1252.62 426.47 1240.62 423.67 1231.69 416.34 C 1225.31 411.15 1221.50 403.08 1221.54 394.86 C 1226.04 394.85 1230.54 394.85 1235.05 394.85 C 1235.14 399.85 1236.85 404.98 1240.68 408.36 C 1247.19 414.35 1256.67 415.40 1265.12 414.53 C 1270.96 413.94 1277.19 411.54 1280.26 406.23 C 1283.74 399.98 1282.57 390.89 1276.45 386.69 C 1263.95 378.56 1247.90 378.27 1235.82 369.24 C 1231.29 366.07 1227.52 361.60 1225.90 356.25 C 1223.64 348.69 1224.86 340.00 1229.74 333.71 C 1234.73 327.15 1242.50 323.10 1250.54 321.74 Z" />
<path fill="#ffffff" opacity="1.00" d=" M 1621.43 331.40 C 1633.16 320.07 1651.92 318.24 1666.58 324.45 C 1678.60 329.67 1685.50 342.50 1686.46 355.17 C 1681.94 355.18 1677.43 355.18 1672.93 355.17 C 1671.88 348.65 1670.02 341.68 1664.91 337.12 C 1659.00 332.00 1650.49 331.28 1643.08 332.55 C 1635.15 333.96 1628.62 339.88 1625.43 347.12 C 1620.95 356.74 1621.41 367.60 1621.45 377.95 C 1621.39 387.89 1623.10 398.49 1629.50 406.45 C 1633.42 411.46 1639.59 414.48 1645.93 414.73 C 1652.68 415.03 1660.13 414.04 1665.37 409.36 C 1670.13 404.89 1671.83 398.26 1672.93 392.05 C 1677.45 392.09 1681.98 391.95 1686.51 392.14 C 1685.43 399.67 1683.14 407.27 1678.19 413.20 C 1672.66 420.08 1664.20 424.14 1655.55 425.28 C 1646.53 426.51 1636.89 425.78 1628.84 421.23 C 1619.06 415.77 1612.50 405.67 1609.87 394.94 C 1607.36 385.49 1607.95 375.64 1607.97 365.98 C 1608.27 353.42 1612.19 340.30 1621.43 331.40 Z" />
<path fill="#ffffff" opacity="1.00" d=" M 1789.26 332.33 C 1795.15 325.52 1804.04 321.92 1812.90 321.22 C 1823.15 320.23 1834.10 322.21 1842.40 328.63 C 1849.57 334.06 1853.91 342.88 1853.94 351.87 C 1849.42 351.90 1844.91 351.87 1840.41 351.89 C 1840.34 346.56 1838.68 340.98 1834.55 337.38 C 1829.29 332.59 1821.73 331.64 1814.91 332.11 C 1809.56 332.47 1803.94 334.18 1800.33 338.33 C 1795.42 343.96 1795.47 353.68 1801.48 358.54 C 1808.15 364.06 1816.88 365.86 1824.95 368.41 C 1832.62 370.91 1840.42 374.00 1846.37 379.64 C 1856.59 388.99 1856.84 407.21 1846.51 416.56 C 1839.71 422.96 1830.19 425.47 1821.07 425.76 C 1809.79 426.26 1797.94 423.21 1789.32 415.67 C 1783.37 410.49 1779.92 402.73 1779.94 394.85 C 1784.43 394.85 1788.94 394.85 1793.45 394.85 C 1793.52 400.01 1795.39 405.30 1799.44 408.68 C 1805.86 414.32 1814.96 415.35 1823.16 414.57 C 1829.03 414.03 1835.33 411.73 1838.53 406.46 C 1842.14 400.22 1841.06 391.01 1834.92 386.74 C 1828.80 382.53 1821.51 380.55 1814.50 378.41 C 1805.57 375.61 1796.34 372.14 1789.67 365.31 C 1781.09 356.60 1781.12 341.32 1789.26 332.33 Z" />
<path fill="#ffffff" opacity="1.00" d=" M 626.62 322.41 C 647.98 322.39 669.35 322.41 690.71 322.40 C 690.68 326.10 690.81 329.81 690.60 333.51 C 673.77 333.28 656.93 333.48 640.09 333.41 C 640.08 344.34 640.09 355.27 640.09 366.20 C 654.81 366.20 669.54 366.20 684.26 366.20 C 684.26 369.87 684.26 373.54 684.26 377.21 C 669.54 377.21 654.81 377.21 640.09 377.21 C 640.08 389.27 640.09 401.33 640.09 413.40 C 657.19 413.41 674.30 413.38 691.42 413.41 C 691.40 417.07 691.41 420.74 691.41 424.41 C 669.81 424.41 648.22 424.41 626.62 424.41 C 626.62 390.41 626.63 356.41 626.62 322.41 Z" />
<path fill="#ffffff" opacity="1.00" d=" M 799.40 322.40 C 803.83 322.40 808.27 322.40 812.71 322.40 C 812.75 345.94 812.66 369.47 812.75 393.01 C 812.76 400.95 816.82 409.30 824.39 412.53 C 832.00 415.69 841.06 415.64 848.60 412.28 C 855.87 408.93 859.61 400.77 859.64 393.06 C 859.74 369.51 859.66 345.96 859.68 322.41 C 864.19 322.40 868.70 322.38 873.22 322.42 C 873.19 345.63 873.23 368.84 873.20 392.06 C 873.22 400.30 870.49 408.71 864.74 414.74 C 858.23 421.90 848.49 425.26 839.00 425.70 C 828.51 426.35 817.22 424.00 809.34 416.64 C 802.46 410.50 799.35 401.10 799.41 392.05 C 799.39 368.83 799.40 345.62 799.40 322.40 Z" />
<path fill="#ffffff" opacity="1.00" d=" M 894.36 322.40 C 906.24 322.42 918.13 322.36 930.01 322.43 C 939.37 322.63 949.41 324.87 956.22 331.73 C 963.32 338.84 964.96 349.80 963.30 359.37 C 961.47 369.19 953.65 376.98 944.46 380.36 C 952.50 395.03 960.79 409.56 968.68 424.31 C 963.77 424.50 958.85 424.36 953.94 424.40 C 946.56 410.67 939.20 396.93 931.81 383.21 C 923.84 383.21 915.86 383.21 907.89 383.21 C 907.88 396.94 907.89 410.67 907.89 424.40 C 903.38 424.40 898.87 424.39 894.37 424.42 C 894.35 390.41 894.37 356.41 894.36 322.40 M 908.02 333.34 C 907.72 346.29 907.97 359.25 907.89 372.20 C 915.58 372.14 923.27 372.33 930.96 372.10 C 938.77 371.86 946.93 367.36 949.39 359.60 C 951.29 353.05 950.63 345.21 946.06 339.88 C 942.10 335.34 935.89 333.66 930.08 333.46 C 922.72 333.30 915.36 333.53 908.02 333.34 Z" />
<path fill="#ffffff" opacity="1.00" d=" M 983.61 322.41 C 988.08 322.39 992.55 322.41 997.03 322.39 C 997.10 356.39 997.05 390.39 997.06 424.40 C 992.57 424.40 988.09 424.40 983.61 424.40 C 983.61 390.40 983.62 356.41 983.61 322.41 Z" />
<path fill="#ffffff" opacity="1.00" d=" M 1011.23 322.40 C 1037.48 322.37 1063.73 322.46 1089.98 322.36 C 1090.15 326.04 1090.04 329.72 1090.07 333.41 C 1079.15 333.41 1068.23 333.41 1057.32 333.41 C 1057.31 363.74 1057.32 394.07 1057.31 424.40 C 1052.84 424.40 1048.38 424.40 1043.93 424.40 C 1043.92 394.07 1043.94 363.74 1043.92 333.41 C 1033.02 333.41 1022.12 333.41 1011.22 333.41 C 1011.22 329.74 1011.21 326.07 1011.23 322.40 Z" />
<path fill="#ffffff" opacity="1.00" d=" M 1095.33 322.27 C 1100.49 322.50 1105.66 322.37 1110.83 322.39 C 1119.63 339.33 1128.39 356.30 1137.14 373.27 C 1141.08 367.22 1143.91 360.47 1147.42 354.14 C 1152.86 343.58 1158.46 333.10 1163.79 322.49 C 1168.92 322.29 1174.06 322.45 1179.20 322.40 C 1167.55 343.70 1155.74 364.91 1144.18 386.26 C 1143.86 398.96 1144.15 411.69 1144.05 424.40 C 1139.56 424.40 1135.08 424.40 1130.60 424.40 C 1130.53 411.73 1130.73 399.06 1130.51 386.40 C 1118.94 364.95 1107.08 343.63 1095.33 322.27 Z" />
<path fill="#ffffff" opacity="1.00" d=" M 1312.80 322.44 C 1334.17 322.34 1355.53 322.44 1376.90 322.39 C 1376.91 326.06 1376.90 329.74 1376.91 333.41 C 1360.04 333.41 1343.16 333.41 1326.29 333.41 C 1326.36 344.37 1326.13 355.34 1326.41 366.29 C 1341.06 366.04 1355.73 366.34 1370.39 366.14 C 1370.52 369.82 1370.43 373.52 1370.46 377.21 C 1355.73 377.22 1341.01 377.20 1326.29 377.22 C 1326.29 389.28 1326.27 401.34 1326.30 413.41 C 1343.40 413.39 1360.51 413.40 1377.61 413.40 C 1377.61 417.06 1377.60 420.73 1377.61 424.40 C 1356.02 424.39 1334.42 424.42 1312.83 424.41 C 1312.80 390.42 1312.86 356.43 1312.80 322.44 Z" />
<path fill="#ffffff" opacity="1.00" d=" M 1394.17 322.40 C 1406.13 322.43 1418.09 322.35 1430.05 322.43 C 1439.17 322.66 1448.89 324.83 1455.65 331.36 C 1462.99 338.38 1464.77 349.47 1463.14 359.13 C 1461.40 369.06 1453.51 376.95 1444.26 380.37 C 1452.30 395.03 1460.61 409.55 1468.46 424.31 C 1463.55 424.50 1458.65 424.35 1453.75 424.40 C 1446.37 410.68 1438.99 396.96 1431.64 383.23 C 1423.65 383.19 1415.67 383.22 1407.69 383.21 C 1407.67 396.94 1407.71 410.67 1407.67 424.41 C 1403.16 424.39 1398.66 424.41 1394.16 424.39 C 1394.17 390.40 1394.15 356.40 1394.17 322.40 M 1407.68 333.42 C 1407.69 346.35 1407.68 359.27 1407.69 372.20 C 1415.45 372.13 1423.23 372.35 1431.00 372.09 C 1438.96 371.80 1447.26 366.95 1449.40 358.90 C 1451.05 352.36 1450.23 344.61 1445.51 339.49 C 1441.31 335.01 1434.94 333.52 1429.02 333.43 C 1421.90 333.38 1414.79 333.42 1407.68 333.42 Z" />
<path fill="#ffffff" opacity="1.00" d=" M 1471.35 322.40 C 1476.21 322.38 1481.06 322.44 1485.93 322.37 C 1495.70 350.26 1505.17 378.26 1514.89 406.17 C 1525.00 378.39 1534.29 350.29 1544.11 322.39 C 1549.01 322.40 1553.91 322.40 1558.82 322.40 C 1546.23 356.40 1533.61 390.40 1521.01 424.40 C 1517.03 424.40 1513.05 424.40 1509.09 424.39 C 1496.52 390.39 1483.92 356.40 1471.35 322.40 Z" />
<path fill="#ffffff" opacity="1.00" d=" M 1573.41 322.40 C 1577.89 322.39 1582.37 322.40 1586.85 322.40 C 1586.87 356.40 1586.86 390.40 1586.86 424.41 C 1582.37 424.41 1577.89 424.41 1573.42 424.42 C 1573.40 390.41 1573.41 356.41 1573.41 322.40 Z" />
<path fill="#ffffff" opacity="1.00" d=" M 1704.62 322.41 C 1725.98 322.39 1747.35 322.41 1768.71 322.40 C 1768.70 326.07 1768.71 329.74 1768.70 333.42 C 1751.83 333.40 1734.96 333.43 1718.10 333.40 C 1718.07 344.33 1718.09 355.27 1718.09 366.20 C 1732.81 366.20 1747.53 366.20 1762.26 366.20 C 1762.25 369.87 1762.25 373.54 1762.26 377.21 C 1747.53 377.22 1732.81 377.21 1718.09 377.21 C 1718.08 389.27 1718.09 401.33 1718.09 413.40 C 1735.19 413.41 1752.30 413.39 1769.41 413.41 C 1769.40 417.07 1769.40 420.74 1769.41 424.41 C 1747.81 424.41 1726.22 424.41 1704.62 424.41 C 1704.62 390.41 1704.63 356.41 1704.62 322.41 Z" />
</g>
<g id="#24b6d0ff">
<path fill="#24b6d0" opacity="1.00" d=" M 461.19 195.12 C 468.85 190.79 474.95 184.26 482.51 179.77 C 481.36 197.14 480.16 214.52 478.99 231.89 C 471.80 237.24 465.01 243.13 457.59 248.18 C 458.79 230.50 459.97 212.81 461.19 195.12 Z" />
</g>
<g id="#24b9c9ff">
<path fill="#24b9c9" opacity="1.00" d=" M 457.59 248.18 C 465.01 243.13 471.80 237.24 478.99 231.89 C 477.79 249.51 476.62 267.13 475.40 284.75 C 469.10 288.92 463.38 293.90 457.41 298.51 C 456.52 299.38 455.25 299.18 454.14 299.25 C 455.29 282.23 456.43 265.21 457.59 248.18 Z" />
</g>
<g id="#22aaedff">
<path fill="#22aaed" opacity="1.00" d=" M 31.72 294.13 C 38.35 289.58 44.19 283.95 51.06 279.75 C 53.28 313.41 55.46 347.07 57.66 380.74 C 50.62 384.44 45.45 390.84 38.27 394.30 C 36.07 360.91 33.89 327.52 31.72 294.13 Z" />
</g>
<g id="#24bbc3ff">
<path fill="#24bbc3" opacity="1.00" d=" M 457.41 298.51 C 463.38 293.90 469.10 288.92 475.40 284.75 C 471.58 341.85 467.67 398.94 463.84 456.03 C 463.84 460.11 461.77 464.10 458.29 466.27 C 393.19 510.90 328.08 555.52 263.00 600.16 C 260.07 602.31 256.78 604.49 252.97 604.20 C 249.47 604.19 246.57 602.08 243.86 600.13 C 204.83 573.00 165.76 545.93 126.72 518.80 C 131.53 513.69 138.05 510.52 142.58 505.16 C 179.63 530.77 216.50 556.64 253.64 582.11 C 316.93 538.47 380.43 495.13 443.81 451.63 C 447.29 400.84 450.69 350.05 454.14 299.25 C 455.25 299.18 456.52 299.38 457.41 298.51 Z" />
</g>
<g id="#23b0e0ff">
<path fill="#23b0e0" opacity="1.00" d=" M 38.27 394.30 C 45.45 390.84 50.62 384.44 57.66 380.74 C 59.15 403.20 60.58 425.67 62.08 448.13 C 62.05 450.02 64.31 450.61 65.49 451.69 C 60.20 456.30 54.43 460.30 48.97 464.71 C 44.97 462.75 42.19 458.59 42.16 454.10 C 40.87 434.17 39.53 414.24 38.27 394.30 Z" />
</g>
<g id="#23b5d3ff">
<path fill="#23b5d3" opacity="1.00" d=" M 65.49 451.69 C 91.23 469.45 116.87 487.35 142.58 505.16 C 138.05 510.52 131.53 513.69 126.72 518.80 C 100.71 500.86 74.89 482.64 48.77 464.86 L 48.97 464.71 C 54.43 460.30 60.20 456.30 65.49 451.69 Z" />
</g>
</svg>
