<svg height="512pt" viewBox="0 0 512 512" width="512pt" xmlns="http://www.w3.org/2000/svg" xmlns:xlink="http://www.w3.org/1999/xlink"><linearGradient id="a" gradientUnits="userSpaceOnUse" x1="0" x2="512" y1="256" y2="256"><stop offset="0" stop-color="#FFF"/><stop offset="1" stop-color="#FFF"/></linearGradient><path d="m492 276c11.046875 0 20-8.953125 20-20s-8.953125-20-20-20h-58.667969v-38.667969h58.667969c11.046875 0 20-8.953125 20-20s-8.953125-20-20-20h-58.667969v-58.664062c0-11.046875-8.953125-20-20-20h-58.664062v-58.667969c0-11.046875-8.953125-20-20-20s-20 8.953125-20 20v58.667969h-38.667969v-58.667969c0-11.046875-8.953125-20-20-20s-20 8.953125-20 20v58.667969h-38.667969v-58.667969c0-11.046875-8.953125-20-20-20s-20 8.953125-20 20v58.667969h-58.664062c-11.046875 0-20 8.953125-20 20v58.667969h-58.667969c-11.046875 0-20 8.953124-20 20 0 11.042968 8.953125 20 20 20h58.667969v38.664062h-58.667969c-11.046875 0-20 8.953125-20 20s8.953125 20 20 20h58.667969v38.667969h-58.667969c-11.046875 0-20 8.953125-20 20s8.953125 20 20 20h58.667969v58.667969c0 11.042968 8.953125 20 20 20h58.667969v58.664062c0 11.046875 8.953124 20 20 20 11.042968 0 20-8.953125 20-20v-58.667969h38.664062v58.667969c0 11.046875 8.953125 20 20 20s20-8.953125 20-20v-58.667969h38.667969v58.667969c0 11.046875 8.953125 20 20 20s20-8.953125 20-20v-58.667969h58.664062c11.046875 0 20-8.953125 20-20v-58.667969h58.667969c11.046875 0 20-8.953124 20-20 0-11.042968-8.953125-20-20-20h-58.667969v-38.664062zm-98.667969 117.332031h-274.664062v-274.664062h274.667969v274.664062zm0 0" fill="url(#a)"/></svg>