<svg height="512pt" viewBox="0 0 512 512" width="512pt" xmlns="http://www.w3.org/2000/svg" xmlns:xlink="http://www.w3.org/1999/xlink"><linearGradient id="a" gradientUnits="userSpaceOnUse" x1="0" x2="512" y1="256" y2="256"><stop offset="0" stop-color="#FFFFFF"/><stop offset="1" stop-color="#FFFFFF"/></linearGradient><path d="m492 0h-472c-11.046875 0-20 8.953125-20 20v314.105469c0 11.046875 8.953125 20 20 20h216v45.4375c-15.90625 5.863281-28.558594 18.511719-34.429688 34.417969h-59.570312c-11.046875 0-20 8.953124-20 20 0 11.042968 8.953125 20 20 20h59.542969c8.152343 22.175781 29.488281 38.039062 54.457031 38.039062s46.304688-15.863281 54.457031-38.039062h59.542969c11.046875 0 20-8.957032 20-20 0-11.046876-8.953125-20-20-20h-59.570312c-5.871094-15.90625-18.523438-28.554688-34.429688-34.417969v-45.4375h216c11.046875 0 20-8.953125 20-20 0-17.441407 0-296.664063 0-314.105469 0-11.046875-8.953125-20-20-20zm-236 472c-9.925781 0-18-8.078125-18-18.007812 0-9.929688 8.074219-18.003907 18-18.003907s18 8.078125 18 18.003907c0 9.929687-8.074219 18.007812-18 18.007812zm216-157.894531h-432v-117.050781h432zm0-157.050781h-432v-117.054688h432zm-376-58.5c0-13.808594 11.191406-25 25-25s25 11.191406 25 25c0 13.804687-11.191406 25-25 25s-25-11.195313-25-25zm75 0c0-13.808594 11.191406-25 25-25s25 11.191406 25 25c0 13.804687-11.191406 25-25 25s-25-11.195313-25-25zm-75 157.023437c0-13.804687 11.191406-25 25-25s25 11.195313 25 25c0 13.808594-11.191406 25-25 25s-25-11.191406-25-25zm75 0c0-13.804687 11.191406-25 25-25s25 11.195313 25 25c0 13.808594-11.191406 25-25 25s-25-11.191406-25-25zm0 0" fill="url(#a)"/></svg>